<svg width="250" height="50" viewBox="0 0 250 50" fill="none" xmlns="http://www.w3.org/2000/svg">
<g clip-path="url(#clip0_466_3396)">
<path d="M24.9863 49.9984C17.3742 49.9984 9.76196 49.9984 2.14957 49.9984C1.88674 50.0045 1.62467 49.9672 1.37368 49.888C0.978004 49.7536 0.633306 49.498 0.387226 49.1565C0.141146 48.815 0.00583645 48.4045 0 47.9817C0 47.9203 0 47.8589 0 47.7974C0.000315788 32.5984 0.000473603 17.3987 0.000473603 2.1981C0.000473603 1.95189 0.00473682 1.70665 0.0828944 1.47005C0.353841 0.650812 0.907101 0.165606 1.7531 0.0249869C1.86551 0.00649633 1.97933 -0.00185515 2.0932 3.06178e-05C2.1472 3.06178e-05 2.2012 3.06178e-05 2.2552 3.06178e-05C17.4389 3.06178e-05 32.623 3.06178e-05 47.8073 3.06178e-05C48.0431 -0.00652882 48.2788 0.0189746 48.5079 0.0758592C48.8903 0.18141 49.2336 0.398809 49.4947 0.700889C49.7559 1.00297 49.9234 1.37633 49.9763 1.77432C49.9915 1.8961 49.9995 2.01871 50 2.14147C50 17.3827 50 32.6237 50 47.8646C50 48.3892 49.8603 48.8619 49.523 49.2641C49.1308 49.7315 48.6268 49.972 48.0229 49.9969C47.9352 50.0008 47.8476 49.9969 47.76 49.9969L24.9863 49.9984Z" fill="#03588C"/>
<path d="M24.9863 49.9984C17.3742 49.9984 9.76196 49.9984 2.14957 49.9984C1.88674 50.0045 1.62467 49.9672 1.37368 49.888C0.978004 49.7536 0.633306 49.498 0.387226 49.1565C0.141146 48.815 0.00583645 48.4045 0 47.9817C0 47.9203 0 47.8589 0 47.7974C0.000315788 32.5984 0.000473603 17.3987 0.000473603 2.1981C0.000473603 1.95189 0.00473682 1.70665 0.0828944 1.47005C0.353841 0.650812 0.907101 0.165606 1.7531 0.0249869C1.86551 0.00649633 1.97933 -0.00185515 2.0932 3.06178e-05C2.1472 3.06178e-05 2.2012 3.06178e-05 2.2552 3.06178e-05C17.4389 3.06178e-05 32.623 3.06178e-05 47.8073 3.06178e-05C48.0431 -0.00652882 48.2788 0.0189746 48.5079 0.0758592C48.8903 0.18141 49.2336 0.398809 49.4947 0.700889C49.7559 1.00297 49.9234 1.37633 49.9763 1.77432C49.9915 1.8961 49.9995 2.01871 50 2.14147C50 17.3827 50 32.6237 50 47.8646C50 48.3892 49.8603 48.8619 49.523 49.2641C49.1308 49.7315 48.6268 49.972 48.0229 49.9969C47.9352 50.0008 47.8476 49.9969 47.76 49.9969L24.9863 49.9984Z" fill="black" fill-opacity="0.2"/>
<path d="M25.1943 21.6866C25.1271 21.7148 25.1041 21.7822 25.0689 21.8372C24.5545 22.6091 24.0414 23.3815 23.5294 24.1543L14.5093 37.7473C14.3672 37.9609 14.4137 37.9318 14.1863 37.9332C12.6339 37.9453 11.0811 37.9563 9.52781 37.9662C8.09033 37.9767 6.65301 37.9878 5.21583 37.9996H5.00062C4.9934 37.9131 5.05115 37.8696 5.08634 37.818C5.58024 37.0894 6.07549 36.3618 6.5721 35.6351L15.7009 22.2238C17.2319 19.9749 18.763 17.7262 20.294 15.4777C20.9274 14.5417 21.7054 13.7255 22.595 13.0635C23.1224 12.6635 23.7094 12.3602 24.3317 12.1661C24.8571 12.0038 25.4088 11.9598 25.9513 12.0369C26.4937 12.114 27.0149 12.3105 27.4814 12.6138C27.8238 12.8292 28.1441 13.0816 28.4374 13.3669C28.9275 13.8483 29.3662 14.3852 29.7459 14.9678L36.4324 25.0136L44.5538 37.2078C44.6762 37.3907 44.7982 37.5738 44.9197 37.7573C44.9486 37.8008 44.9756 37.8458 45 37.884C44.9815 37.9399 44.9445 37.927 44.9161 37.9284C44.8646 37.9318 44.8132 37.9284 44.7622 37.9284H16.9593C16.8952 37.9284 16.8311 37.9284 16.7671 37.9256C16.7608 37.925 16.7547 37.9227 16.7496 37.9188C16.7444 37.9149 16.7404 37.9096 16.7379 37.9035C16.7354 37.8973 16.7345 37.8906 16.7354 37.8839C16.7362 37.8773 16.7388 37.871 16.7427 37.8658C16.7797 37.8104 16.8176 37.7554 16.8555 37.701C18.364 35.5525 19.8721 33.404 21.38 31.2555C21.5235 31.0509 21.4752 31.0791 21.7103 31.0791H30.6812C30.7326 31.0791 30.7841 31.0791 30.835 31.0791C30.8725 31.0791 30.919 31.0935 30.9424 31.0572C30.9659 31.0208 30.9289 30.9816 30.9095 30.9496C30.7985 30.7666 30.6839 30.585 30.5738 30.403C28.8223 27.5577 27.0706 24.7122 25.3188 21.8663C25.287 21.7996 25.2449 21.7388 25.1943 21.6866Z" fill="white"/>
<path d="M60 21.0769L66.2405 6.95068H67.6129L73.8534 21.0769H72.2584L70.7644 17.6555H63.0923L61.6184 21.0769H60ZM70.1757 16.3338L66.9247 8.8273L63.6539 16.3338H70.1757Z" fill="#2C2C2C" stroke="#2C2C2C" stroke-width="0.992606"/>
<path d="M83.7536 21.2727C83.1549 21.3208 82.3911 21.3449 81.462 21.3449C80.5465 21.3449 79.7389 21.1387 79.0392 20.7262C78.3396 20.3138 77.7945 19.7226 77.4039 18.9527C77.0135 18.1831 76.8184 17.2826 76.8184 16.2512C76.8184 14.7392 77.2457 13.526 78.1004 12.6114C78.9551 11.6968 80.1362 11.2397 81.6437 11.24C82.8551 11.24 83.9588 11.3844 84.9549 11.6731V6.43506H86.3278V20.8912C85.2106 21.0974 84.3525 21.2246 83.7536 21.2727ZM79.0998 13.4878C78.4807 14.1752 78.1711 15.097 78.1711 16.2531C78.1711 17.4492 78.4807 18.4012 79.0998 19.1093C79.719 19.8173 80.5871 20.1713 81.7043 20.1713C82.2696 20.1713 82.7676 20.1541 83.1984 20.1197C83.6291 20.0854 84.2078 20.0063 84.9347 19.8826V12.8898C83.9521 12.6011 82.8955 12.4567 81.7649 12.4567C80.6073 12.4567 79.719 12.8004 79.0998 13.4878Z" fill="#2C2C2C" stroke="#2C2C2C" stroke-width="0.992606"/>
<path d="M97.6446 21.2727C97.0454 21.3208 96.2815 21.3449 95.3531 21.3449C94.4372 21.3449 93.6296 21.1387 92.9303 20.7262C92.231 20.3138 91.6857 19.7226 91.2945 18.9527C90.9038 18.1831 90.7087 17.2826 90.709 16.2512C90.709 14.7392 91.1373 13.526 91.9938 12.6114C92.8503 11.6968 94.0313 11.2397 95.5367 11.24C96.7487 11.24 97.8525 11.3844 98.8482 11.6731V6.43506H100.221V20.8912C99.1006 21.0974 98.2418 21.2246 97.6446 21.2727ZM92.9909 13.4878C92.3714 14.1752 92.0619 15.097 92.0622 16.2531C92.0622 17.4492 92.3717 18.4012 92.9909 19.1093C93.6101 19.8173 94.4782 20.1713 95.5954 20.1713C96.1604 20.1713 96.6583 20.1541 97.089 20.1197C97.5197 20.0854 98.0985 20.0063 98.8253 19.8826V12.8898C97.843 12.6011 96.7864 12.4567 95.6555 12.4567C94.4979 12.4567 93.6097 12.8004 92.9909 13.4878Z" fill="#2C2C2C" stroke="#2C2C2C" stroke-width="0.992606"/>
<path d="M113.282 9.48713L109.406 21.0768H108.053L103.349 7.05371H104.863L108.76 18.829L112.636 7.05371H113.888L117.784 18.8083L121.661 7.05371H123.195L118.491 21.0768H117.138L113.282 9.48713Z" fill="#2C2C2C" stroke="#2C2C2C" stroke-width="0.992606"/>
<path d="M132.179 11.7864C132.844 12.1433 133.391 12.6919 133.754 13.364C134.13 14.0514 134.318 14.8482 134.319 15.7543C134.323 16.1196 134.302 16.4847 134.258 16.8473H126.484C126.592 17.8371 126.965 18.6276 127.605 19.2188C128.245 19.81 129.076 20.1056 130.098 20.1056C130.633 20.1073 131.166 20.0625 131.693 19.9715C132.205 19.8825 132.816 19.7484 133.529 19.5694L133.751 20.7242C133.01 20.9445 132.371 21.1095 131.833 21.2192C131.247 21.3337 130.652 21.3889 130.056 21.3841C129.02 21.3841 128.121 21.1676 127.361 20.7345C126.618 20.3206 126.011 19.6932 125.614 18.9301C125.211 18.1605 125.009 17.2806 125.009 16.2905C125.009 15.2875 125.214 14.4042 125.625 13.6405C126.019 12.8941 126.615 12.2787 127.341 11.867C128.075 11.448 128.913 11.2383 129.854 11.238C130.731 11.2393 131.506 11.4221 132.179 11.7864ZM127.485 13.3021C126.873 13.9077 126.526 14.7188 126.445 15.7355H133.067C133.054 14.7044 132.754 13.8899 132.169 13.2918C131.584 12.6938 130.82 12.3948 129.877 12.3948C128.894 12.3948 128.097 12.6972 127.485 13.3021Z" fill="#2C2C2C" stroke="#2C2C2C" stroke-width="0.992606"/>
<path d="M143.405 11.24C144.912 11.24 146.093 11.6971 146.948 12.6114C147.803 13.5256 148.23 14.7389 148.23 16.2512C148.23 17.2823 148.035 18.1828 147.645 18.9527C147.254 19.7226 146.709 20.3138 146.009 20.7262C145.309 21.1387 144.501 21.3449 143.586 21.3449C142.658 21.3449 141.894 21.3208 141.295 21.2727C140.696 21.2246 139.838 21.0974 138.721 20.8912V6.43506H140.094V11.6731C141.076 11.3844 142.18 11.24 143.405 11.24ZM140.113 12.8898V19.8807C140.84 20.0057 141.422 20.0847 141.859 20.1179C142.297 20.151 142.791 20.1682 143.343 20.1694C144.46 20.1694 145.328 19.8154 145.948 19.1074C146.567 18.3994 146.877 17.4473 146.876 16.2512C146.876 15.0951 146.567 14.1734 145.948 13.486C145.329 12.7986 144.44 12.4549 143.283 12.4549C142.153 12.4561 141.096 12.6011 140.113 12.8898Z" fill="#2C2C2C" stroke="#2C2C2C" stroke-width="0.992606"/>
<path d="M166.764 8.34274C165.943 8.19838 165.209 8.1262 164.562 8.1262C163.552 8.1262 162.751 8.35305 162.159 8.80674C161.567 9.26042 161.271 9.89284 161.271 10.704C161.271 11.1727 161.388 11.5542 161.624 11.8485C161.86 12.1428 162.223 12.3869 162.714 12.5806C163.204 12.7737 163.887 12.9593 164.763 13.1374C165.961 13.3989 166.92 13.6704 167.641 13.952C168.361 14.2335 168.933 14.6356 169.357 15.1584C169.781 15.6814 169.993 16.3757 169.993 17.2412C169.993 18.5479 169.525 19.5653 168.589 20.2933C167.654 21.0213 166.419 21.3856 164.885 21.3863C163.925 21.3787 162.968 21.2751 162.028 21.0769C161.05 20.8826 160.094 20.5925 159.171 20.2108L159.554 18.8516C160.451 19.22 161.377 19.5087 162.322 19.7144C163.264 19.9207 164.139 20.0238 164.947 20.0238C166.037 20.0238 166.909 19.7894 167.562 19.3208C168.215 18.8521 168.542 18.199 168.541 17.3616C168.541 16.743 168.353 16.2481 167.976 15.8769C167.58 15.4941 167.103 15.2085 166.583 15.0417C166.032 14.8561 165.298 14.667 164.38 14.4745L163.956 14.3921C162.92 14.1733 162.099 13.9156 161.493 13.6187C160.888 13.3219 160.447 12.9469 160.171 12.4939C159.895 12.0402 159.758 11.4622 159.758 10.7597C159.758 9.53648 160.199 8.57067 161.08 7.86233C161.962 7.15399 163.136 6.79998 164.603 6.80029C165.476 6.80411 166.348 6.88345 167.208 7.03745C168.11 7.19586 168.897 7.39896 169.57 7.64674L169.186 8.90469C168.39 8.67229 167.581 8.48469 166.764 8.34274Z" fill="#2C2C2C" stroke="#2C2C2C" stroke-width="0.992606"/>
<path d="M181.553 11.8175C182.312 12.2293 182.942 12.8511 183.37 13.6116C183.808 14.3822 184.026 15.2689 184.027 16.2719C184.027 17.2749 183.808 18.1685 183.37 18.9528C182.947 19.7226 182.316 20.3523 181.553 20.7675C180.779 21.1934 179.901 21.4065 178.919 21.4068C177.936 21.4071 177.058 21.194 176.284 20.7675C175.521 20.3526 174.89 19.7228 174.467 18.9528C174.029 18.1691 173.81 17.2755 173.811 16.2719C173.811 15.2683 174.03 14.3815 174.467 13.6116C174.895 12.8509 175.525 12.229 176.284 11.8175C177.057 11.3919 177.936 11.1788 178.919 11.1782C179.901 11.1776 180.78 11.3907 181.553 11.8175ZM180.847 19.6446C181.399 19.3284 181.851 18.8566 182.149 18.2854C182.458 17.7014 182.613 17.0312 182.613 16.2747C182.613 15.1339 182.27 14.2162 181.584 13.5217C180.897 12.8271 180.009 12.4799 178.919 12.4802C178.205 12.4802 177.569 12.6383 177.011 12.9545C176.46 13.2634 176.005 13.7243 175.698 14.2847C175.382 14.8555 175.224 15.5189 175.224 16.2747C175.224 17.0305 175.382 17.7008 175.698 18.2854C176.001 18.8559 176.456 19.3271 177.011 19.6446C177.569 19.968 178.205 20.1295 178.919 20.1292C179.645 20.1286 180.288 19.9667 180.847 19.6436V19.6446Z" fill="#2C2C2C" stroke="#2C2C2C" stroke-width="0.992606"/>
<path d="M188.549 21.0768V6.43506H189.922V21.0768H188.549Z" fill="#2C2C2C" stroke="#2C2C2C" stroke-width="0.992606"/>
<path d="M201.622 21.252C200.687 21.3417 199.788 21.3864 198.927 21.3861C197.729 21.3861 196.797 21.063 196.131 20.4168C195.464 19.7707 195.131 18.7946 195.131 17.4885V11.5493H196.504V17.2204C196.504 18.1831 196.733 18.9152 197.192 19.4167C197.651 19.9182 198.317 20.1691 199.191 20.1694C200.354 20.167 201.515 20.0705 202.664 19.8807V11.5493H204.036V20.8705C203.361 21.0371 202.556 21.1642 201.622 21.252Z" fill="#2C2C2C" stroke="#2C2C2C" stroke-width="0.992606"/>
<path d="M214.281 21.3242C213.936 21.368 213.589 21.3887 213.241 21.3861C212.164 21.3861 211.367 21.0905 210.849 20.4993C210.33 19.9081 210.071 18.9939 210.071 17.7566V12.8279H207.933V11.5493H210.073V7.54858H211.446V11.5493H214.777V12.8279H211.446V17.6328C211.446 18.499 211.604 19.1279 211.92 19.5197C212.236 19.9116 212.751 20.1075 213.465 20.1075C214.027 20.0991 214.587 20.044 215.14 19.9425L215.324 21.118C214.98 21.2049 214.632 21.2737 214.281 21.3242Z" fill="#2C2C2C" stroke="#2C2C2C" stroke-width="0.992606"/>
<path d="M219.43 8.82717C219.334 8.73453 219.259 8.62241 219.208 8.49806C219.158 8.37372 219.134 8.23994 219.137 8.10539C219.137 7.80356 219.235 7.5561 219.43 7.363C219.624 7.17744 219.88 7.07422 220.147 7.07422C220.413 7.07422 220.669 7.17744 220.863 7.363C221.058 7.5561 221.156 7.80356 221.156 8.10539C221.159 8.23992 221.135 8.37367 221.085 8.498C221.034 8.62232 220.959 8.73446 220.863 8.82717C220.669 9.01273 220.413 9.11595 220.147 9.11595C219.88 9.11595 219.624 9.01273 219.43 8.82717ZM219.46 21.0767V11.5493H220.833V21.0767H219.46Z" fill="#2C2C2C" stroke="#2C2C2C" stroke-width="0.992606"/>
<path d="M233.017 11.8175C233.776 12.229 234.406 12.8509 234.834 13.6116C235.272 14.3822 235.49 15.2689 235.49 16.2719C235.49 17.2749 235.272 18.1685 234.834 18.9528C234.411 19.7228 233.78 20.3526 233.017 20.7675C232.243 21.1934 231.365 21.4065 230.382 21.4068C229.4 21.4071 228.522 21.194 227.748 20.7675C226.985 20.3526 226.354 19.7228 225.931 18.9528C225.493 18.1691 225.274 17.2755 225.274 16.2719C225.274 15.2683 225.493 14.3815 225.931 13.6116C226.359 12.8509 226.989 12.229 227.748 11.8175C228.522 11.3919 229.4 11.1788 230.382 11.1782C231.365 11.1776 232.243 11.3907 233.017 11.8175ZM232.311 19.6446C232.863 19.3284 233.315 18.8566 233.613 18.2854C233.923 17.7014 234.077 17.0312 234.077 16.2747C234.077 15.1339 233.734 14.2162 233.048 13.5217C232.361 12.8271 231.473 12.4799 230.382 12.4802C229.669 12.4802 229.033 12.6383 228.474 12.9545C227.924 13.2634 227.469 13.7243 227.162 14.2847C226.846 14.8555 226.687 15.5189 226.688 16.2747C226.688 17.0305 226.846 17.7008 227.162 18.2854C227.465 18.8559 227.92 19.3271 228.474 19.6446C229.033 19.968 229.669 20.1295 230.382 20.1292C231.109 20.1286 231.752 19.9667 232.311 19.6436V19.6446Z" fill="#2C2C2C" stroke="#2C2C2C" stroke-width="0.992606"/>
<path d="M247.765 12.2814C248.438 12.976 248.775 13.9281 248.775 15.1376V21.0768H247.402V15.4675C247.402 14.547 247.163 13.8284 246.685 13.3116C246.207 12.7948 245.551 12.537 244.717 12.5382C243.553 12.5321 242.391 12.6287 241.244 12.827V21.0758H239.871V11.7555C240.678 11.5861 241.494 11.4621 242.314 11.3843C243.256 11.2887 244.144 11.2406 244.979 11.24C246.164 11.24 247.092 11.5871 247.765 12.2814Z" fill="#2C2C2C" stroke="#2C2C2C" stroke-width="0.992606"/>
<path d="M87.1535 33.7309C87.1535 34.1271 87.0391 34.4218 86.8103 34.6149C86.6036 34.7995 86.3388 34.9023 86.0642 34.9045C85.9118 34.9083 85.7608 34.8742 85.6242 34.8051C85.5044 34.7433 85.3998 34.6547 85.3181 34.546C85.2388 34.4407 85.1782 34.3221 85.1391 34.1954C85.0995 34.0699 85.0794 33.9387 85.0795 33.8068C85.0725 33.4299 85.1598 33.0574 85.3332 32.7246C85.4905 32.4258 85.695 32.1554 85.9385 31.9246C86.1499 31.7225 86.3855 31.5485 86.6396 31.4067C86.873 31.2798 87.0595 31.2017 87.199 31.1724L87.4825 31.9954C87.272 32.0845 87.0817 32.2167 86.9232 32.3839C86.7613 32.5414 86.6408 32.7378 86.5726 32.9552C86.6553 32.9551 86.7368 32.9759 86.8097 33.0158C86.8825 33.0557 86.9446 33.1135 86.9902 33.184C87.1014 33.3433 87.1587 33.5353 87.1535 33.7309ZM89.6006 33.7309C89.6006 34.1271 89.4862 34.4218 89.2574 34.6149C89.0507 34.7995 88.7859 34.9023 88.5113 34.9045C88.3589 34.9083 88.2079 34.8742 88.0713 34.8051C87.9515 34.7433 87.8469 34.6547 87.7652 34.546C87.6859 34.4407 87.6253 34.3221 87.5862 34.1954C87.5466 34.0699 87.5264 33.9387 87.5266 33.8068C87.5196 33.4299 87.6069 33.0574 87.7803 32.7246C87.9373 32.4258 88.1415 32.1555 88.3847 31.9246C88.5961 31.7225 88.8316 31.5485 89.0858 31.4067C89.3195 31.2798 89.506 31.2017 89.6451 31.1724L89.9306 31.9935C89.7201 32.0826 89.5297 32.2148 89.3712 32.382C89.2093 32.5395 89.0888 32.7359 89.0206 32.9534C89.1033 32.9532 89.1848 32.974 89.2577 33.0139C89.3306 33.0538 89.3926 33.1116 89.4382 33.1821C89.5493 33.3422 89.6063 33.5348 89.6006 33.7309Z" fill="#03588C"/>
<path d="M87.1535 33.7309C87.1535 34.1271 87.0391 34.4218 86.8103 34.6149C86.6036 34.7995 86.3388 34.9023 86.0642 34.9045C85.9118 34.9083 85.7608 34.8742 85.6242 34.8051C85.5044 34.7433 85.3998 34.6547 85.3181 34.546C85.2388 34.4407 85.1782 34.3221 85.1391 34.1954C85.0995 34.0699 85.0794 33.9387 85.0795 33.8068C85.0725 33.4299 85.1598 33.0574 85.3332 32.7246C85.4905 32.4258 85.695 32.1554 85.9385 31.9246C86.1499 31.7225 86.3855 31.5485 86.6396 31.4067C86.873 31.2798 87.0595 31.2017 87.199 31.1724L87.4825 31.9954C87.272 32.0845 87.0817 32.2167 86.9232 32.3839C86.7613 32.5414 86.6408 32.7378 86.5726 32.9552C86.6553 32.9551 86.7368 32.9759 86.8097 33.0158C86.8825 33.0557 86.9446 33.1135 86.9902 33.184C87.1014 33.3433 87.1587 33.5353 87.1535 33.7309ZM89.6006 33.7309C89.6006 34.1271 89.4862 34.4218 89.2574 34.6149C89.0507 34.7995 88.7859 34.9023 88.5113 34.9045C88.3589 34.9083 88.2079 34.8742 88.0713 34.8051C87.9515 34.7433 87.8469 34.6547 87.7652 34.546C87.6859 34.4407 87.6253 34.3221 87.5862 34.1954C87.5466 34.0699 87.5264 33.9387 87.5266 33.8068C87.5196 33.4299 87.6069 33.0574 87.7803 32.7246C87.9373 32.4258 88.1415 32.1555 88.3847 31.9246C88.5961 31.7225 88.8316 31.5485 89.0858 31.4067C89.3195 31.2798 89.506 31.2017 89.6451 31.1724L89.9306 31.9935C89.7201 32.0826 89.5297 32.2148 89.3712 32.382C89.2093 32.5395 89.0888 32.7359 89.0206 32.9534C89.1033 32.9532 89.1848 32.974 89.2577 33.0139C89.3306 33.0538 89.3926 33.1116 89.4382 33.1821C89.5493 33.3422 89.6063 33.5348 89.6006 33.7309Z" fill="black" fill-opacity="0.2"/>
<path d="M92.9719 41.1057C92.9107 41.401 92.9131 41.6197 92.9792 41.7618C93.0043 41.8272 93.0488 41.8828 93.1064 41.9211C93.1639 41.9595 93.2318 41.9785 93.3004 41.9756C93.5727 41.9769 93.8422 41.9198 94.0915 41.8078L94.0456 43.1529C93.8654 43.2635 93.6054 43.3541 93.2655 43.4247C92.935 43.4938 92.5985 43.5291 92.2611 43.5302C91.8313 43.5302 91.504 43.4463 91.2791 43.2785C91.0543 43.1107 90.9417 42.7983 90.9414 42.3411C90.9462 42.0695 90.977 41.7991 91.0332 41.5336L92.8686 32.6787H94.7187L92.9719 41.1057Z" fill="#03588C"/>
<path d="M92.9719 41.1057C92.9107 41.401 92.9131 41.6197 92.9792 41.7618C93.0043 41.8272 93.0488 41.8828 93.1064 41.9211C93.1639 41.9595 93.2318 41.9785 93.3004 41.9756C93.5727 41.9769 93.8422 41.9198 94.0915 41.8078L94.0456 43.1529C93.8654 43.2635 93.6054 43.3541 93.2655 43.4247C92.935 43.4938 92.5985 43.5291 92.2611 43.5302C91.8313 43.5302 91.504 43.4463 91.2791 43.2785C91.0543 43.1107 90.9417 42.7983 90.9414 42.3411C90.9462 42.0695 90.977 41.7991 91.0332 41.5336L92.8686 32.6787H94.7187L92.9719 41.1057Z" fill="black" fill-opacity="0.2"/>
<path d="M101.701 42.6163C101.392 42.8807 100.995 43.1041 100.508 43.2866C100.021 43.469 99.4536 43.5606 98.8066 43.5612C98.0009 43.5612 97.3667 43.3198 96.9042 42.8371C96.4417 42.3543 96.2103 41.6816 96.21 40.8189C96.21 40.0065 96.3343 39.2723 96.583 38.6161C96.8317 37.9599 97.1575 37.4036 97.5604 36.9471C97.9426 36.5056 98.4066 36.1456 98.9255 35.8879C99.3985 35.6467 99.9189 35.5185 100.448 35.5129C100.855 35.5129 101.206 35.5664 101.499 35.6732C101.769 35.7652 102.016 35.916 102.223 36.1152C102.408 36.2967 102.551 36.518 102.641 36.7629C102.731 37.0115 102.777 37.2748 102.775 37.54C102.783 37.9298 102.674 38.3127 102.462 38.6372C102.237 38.9667 101.938 39.2361 101.59 39.4222C101.217 39.6307 100.767 39.7881 100.24 39.8947C99.6692 40.0056 99.0895 40.0593 98.5088 40.055C98.429 40.055 98.3542 40.0522 98.2849 40.047C98.2156 40.0419 98.1404 40.0395 98.061 40.0395C98.0408 40.1623 98.0261 40.2738 98.0151 40.3699C98.0058 40.4591 98.0009 40.5488 98.0004 40.6385C98.0004 41.0997 98.1173 41.4434 98.351 41.6696C98.5847 41.8958 98.9156 42.0085 99.3435 42.0075C99.7452 42.0139 100.145 41.945 100.522 41.8041C100.87 41.6685 101.134 41.533 101.313 41.3978L101.701 42.6163ZM98.3271 38.8505C98.6055 38.8505 98.9015 38.8405 99.215 38.8205C99.5096 38.804 99.8017 38.7569 100.087 38.6798C100.33 38.618 100.559 38.5064 100.759 38.3518C100.846 38.2819 100.916 38.1918 100.963 38.0889C101.01 37.986 101.032 37.8732 101.027 37.7598C101.022 37.5935 100.964 37.4333 100.863 37.3028C100.754 37.1466 100.524 37.0685 100.175 37.0685C99.7362 37.0685 99.3556 37.2383 99.0329 37.578C98.7101 37.9176 98.4749 38.3418 98.3271 38.8505Z" fill="#03588C"/>
<path d="M101.701 42.6163C101.392 42.8807 100.995 43.1041 100.508 43.2866C100.021 43.469 99.4536 43.5606 98.8066 43.5612C98.0009 43.5612 97.3667 43.3198 96.9042 42.8371C96.4417 42.3543 96.2103 41.6816 96.21 40.8189C96.21 40.0065 96.3343 39.2723 96.583 38.6161C96.8317 37.9599 97.1575 37.4036 97.5604 36.9471C97.9426 36.5056 98.4066 36.1456 98.9255 35.8879C99.3985 35.6467 99.9189 35.5185 100.448 35.5129C100.855 35.5129 101.206 35.5664 101.499 35.6732C101.769 35.7652 102.016 35.916 102.223 36.1152C102.408 36.2967 102.551 36.518 102.641 36.7629C102.731 37.0115 102.777 37.2748 102.775 37.54C102.783 37.9298 102.674 38.3127 102.462 38.6372C102.237 38.9667 101.938 39.2361 101.59 39.4222C101.217 39.6307 100.767 39.7881 100.24 39.8947C99.6692 40.0056 99.0895 40.0593 98.5088 40.055C98.429 40.055 98.3542 40.0522 98.2849 40.047C98.2156 40.0419 98.1404 40.0395 98.061 40.0395C98.0408 40.1623 98.0261 40.2738 98.0151 40.3699C98.0058 40.4591 98.0009 40.5488 98.0004 40.6385C98.0004 41.0997 98.1173 41.4434 98.351 41.6696C98.5847 41.8958 98.9156 42.0085 99.3435 42.0075C99.7452 42.0139 100.145 41.945 100.522 41.8041C100.87 41.6685 101.134 41.533 101.313 41.3978L101.701 42.6163ZM98.3271 38.8505C98.6055 38.8505 98.9015 38.8405 99.215 38.8205C99.5096 38.804 99.8017 38.7569 100.087 38.6798C100.33 38.618 100.559 38.5064 100.759 38.3518C100.846 38.2819 100.916 38.1918 100.963 38.0889C101.01 37.986 101.032 37.8732 101.027 37.7598C101.022 37.5935 100.964 37.4333 100.863 37.3028C100.754 37.1466 100.524 37.0685 100.175 37.0685C99.7362 37.0685 99.3556 37.2383 99.0329 37.578C98.7101 37.9176 98.4749 38.3418 98.3271 38.8505Z" fill="black" fill-opacity="0.2"/>
<path d="M104.953 35.7271H105.923L106.221 34.2948L108.191 33.7324L107.773 35.7286H109.517L109.174 37.2832H107.443L106.712 40.7515C106.658 40.9726 106.628 41.1987 106.62 41.4264C106.62 41.6513 106.67 41.8047 106.769 41.8866C106.868 41.9686 107.018 42.0094 107.217 42.0094C107.39 42.0114 107.563 41.9896 107.731 41.9447C107.901 41.8953 108.064 41.8249 108.217 41.7352V43.1342C108.089 43.2031 107.956 43.2617 107.82 43.3095C107.656 43.3679 107.488 43.4138 107.318 43.4469C107.138 43.4822 106.953 43.5101 106.763 43.5308C106.589 43.5501 106.414 43.5603 106.239 43.5612C105.729 43.5612 105.337 43.4415 105.062 43.2022C104.788 42.9629 104.65 42.5987 104.649 42.1097C104.65 42.0023 104.657 41.895 104.672 41.7887C104.687 41.6771 104.704 41.5599 104.724 41.4376L105.59 37.2818H104.595L104.953 35.7271Z" fill="#03588C"/>
<path d="M104.953 35.7271H105.923L106.221 34.2948L108.191 33.7324L107.773 35.7286H109.517L109.174 37.2832H107.443L106.712 40.7515C106.658 40.9726 106.628 41.1987 106.62 41.4264C106.62 41.6513 106.67 41.8047 106.769 41.8866C106.868 41.9686 107.018 42.0094 107.217 42.0094C107.39 42.0114 107.563 41.9896 107.731 41.9447C107.901 41.8953 108.064 41.8249 108.217 41.7352V43.1342C108.089 43.2031 107.956 43.2617 107.82 43.3095C107.656 43.3679 107.488 43.4138 107.318 43.4469C107.138 43.4822 106.953 43.5101 106.763 43.5308C106.589 43.5501 106.414 43.5603 106.239 43.5612C105.729 43.5612 105.337 43.4415 105.062 43.2022C104.788 42.9629 104.65 42.5987 104.649 42.1097C104.65 42.0023 104.657 41.895 104.672 41.7887C104.687 41.6771 104.704 41.5599 104.724 41.4376L105.59 37.2818H104.595L104.953 35.7271Z" fill="black" fill-opacity="0.2"/>
<path d="M111.772 33.6394C111.768 33.4722 111.806 33.3068 111.883 33.159C111.953 33.028 112.046 32.9118 112.158 32.8164C112.264 32.7264 112.384 32.6567 112.513 32.6106C112.632 32.5665 112.758 32.5432 112.884 32.5417C113.23 32.5417 113.477 32.6333 113.625 32.8164C113.773 32.9995 113.847 33.2484 113.847 33.563C113.847 33.9798 113.77 34.3456 113.617 34.6602C113.475 34.9598 113.285 35.2329 113.054 35.4682C112.848 35.6792 112.613 35.8589 112.357 36.0016C112.155 36.1154 111.944 36.2123 111.726 36.2912L111.444 35.4528C111.652 35.3614 111.845 35.2381 112.016 35.0872C112.19 34.934 112.316 34.7328 112.38 34.5079C112.293 34.4986 112.209 34.4715 112.133 34.4283C112.056 34.3851 111.989 34.3265 111.935 34.2562C111.817 34.109 111.762 33.9034 111.772 33.6394Z" fill="#03588C"/>
<path d="M111.772 33.6394C111.768 33.4722 111.806 33.3068 111.883 33.159C111.953 33.028 112.046 32.9118 112.158 32.8164C112.264 32.7264 112.384 32.6567 112.513 32.6106C112.632 32.5665 112.758 32.5432 112.884 32.5417C113.23 32.5417 113.477 32.6333 113.625 32.8164C113.773 32.9995 113.847 33.2484 113.847 33.563C113.847 33.9798 113.77 34.3456 113.617 34.6602C113.475 34.9598 113.285 35.2329 113.054 35.4682C112.848 35.6792 112.613 35.8589 112.357 36.0016C112.155 36.1154 111.944 36.2123 111.726 36.2912L111.444 35.4528C111.652 35.3614 111.845 35.2381 112.016 35.0872C112.19 34.934 112.316 34.7328 112.38 34.5079C112.293 34.4986 112.209 34.4715 112.133 34.4283C112.056 34.3851 111.989 34.3265 111.935 34.2562C111.817 34.109 111.762 33.9034 111.772 33.6394Z" fill="black" fill-opacity="0.2"/>
<path d="M114.938 41.5645C115.181 41.6983 115.439 41.8017 115.707 41.8724C116.03 41.9633 116.364 42.0084 116.699 42.0065C117.047 42.0065 117.313 41.9374 117.497 41.7993C117.681 41.6612 117.778 41.4488 117.788 41.1619C117.792 40.9691 117.729 40.7811 117.609 40.6318C117.476 40.4714 117.323 40.3295 117.154 40.21C116.971 40.0769 116.774 39.9419 116.564 39.8046C116.354 39.6662 116.157 39.5081 115.975 39.3322C115.788 39.1505 115.634 38.9362 115.52 38.6994C115.401 38.4557 115.341 38.1611 115.341 37.8155C115.338 37.4949 115.404 37.1775 115.535 36.8861C115.662 36.6046 115.848 36.3549 116.079 36.1545C116.33 35.942 116.619 35.7815 116.93 35.682C117.295 35.5656 117.675 35.5089 118.057 35.5143C118.634 35.5143 119.111 35.5575 119.489 35.6441C119.867 35.7306 120.166 35.84 120.384 35.9722L119.877 37.4045C119.645 37.2979 119.402 37.2177 119.153 37.1654C118.862 37.1014 118.564 37.07 118.265 37.0717C117.947 37.0717 117.696 37.1281 117.512 37.2409C117.328 37.3537 117.236 37.533 117.237 37.7789C117.237 37.8604 117.253 37.9411 117.283 38.0163C117.314 38.0915 117.359 38.1598 117.416 38.2172C117.555 38.3625 117.707 38.4938 117.871 38.6095C118.054 38.7426 118.251 38.8777 118.46 39.0149C118.673 39.1557 118.87 39.3207 119.047 39.5065C119.232 39.7014 119.385 39.9251 119.502 40.1692C119.621 40.4192 119.681 40.716 119.681 41.0597C119.681 41.9034 119.412 42.5308 118.875 42.942C118.338 43.3532 117.622 43.5596 116.728 43.5611C116.259 43.5652 115.791 43.5166 115.333 43.4163C114.91 43.3197 114.584 43.2004 114.355 43.0582L114.938 41.5645Z" fill="#03588C"/>
<path d="M114.938 41.5645C115.181 41.6983 115.439 41.8017 115.707 41.8724C116.03 41.9633 116.364 42.0084 116.699 42.0065C117.047 42.0065 117.313 41.9374 117.497 41.7993C117.681 41.6612 117.778 41.4488 117.788 41.1619C117.792 40.9691 117.729 40.7811 117.609 40.6318C117.476 40.4714 117.323 40.3295 117.154 40.21C116.971 40.0769 116.774 39.9419 116.564 39.8046C116.354 39.6662 116.157 39.5081 115.975 39.3322C115.788 39.1505 115.634 38.9362 115.52 38.6994C115.401 38.4557 115.341 38.1611 115.341 37.8155C115.338 37.4949 115.404 37.1775 115.535 36.8861C115.662 36.6046 115.848 36.3549 116.079 36.1545C116.33 35.942 116.619 35.7815 116.93 35.682C117.295 35.5656 117.675 35.5089 118.057 35.5143C118.634 35.5143 119.111 35.5575 119.489 35.6441C119.867 35.7306 120.166 35.84 120.384 35.9722L119.877 37.4045C119.645 37.2979 119.402 37.2177 119.153 37.1654C118.862 37.1014 118.564 37.07 118.265 37.0717C117.947 37.0717 117.696 37.1281 117.512 37.2409C117.328 37.3537 117.236 37.533 117.237 37.7789C117.237 37.8604 117.253 37.9411 117.283 38.0163C117.314 38.0915 117.359 38.1598 117.416 38.2172C117.555 38.3625 117.707 38.4938 117.871 38.6095C118.054 38.7426 118.251 38.8777 118.46 39.0149C118.673 39.1557 118.87 39.3207 119.047 39.5065C119.232 39.7014 119.385 39.9251 119.502 40.1692C119.621 40.4192 119.681 40.716 119.681 41.0597C119.681 41.9034 119.412 42.5308 118.875 42.942C118.338 43.3532 117.622 43.5596 116.728 43.5611C116.259 43.5652 115.791 43.5166 115.333 43.4163C114.91 43.3197 114.584 43.2004 114.355 43.0582L114.938 41.5645Z" fill="black" fill-opacity="0.2"/>
<path d="M127.394 35.7271H128.364L128.662 34.2948L130.632 33.7324L130.214 35.7286H131.958L131.615 37.2832H129.884L129.153 40.7515C129.099 40.9726 129.069 41.1987 129.061 41.4264C129.061 41.6513 129.111 41.8047 129.21 41.8866C129.31 41.9685 129.459 42.0094 129.658 42.0094C129.832 42.0113 130.005 41.9896 130.173 41.9447C130.342 41.8952 130.505 41.8248 130.658 41.7352V43.1342C130.53 43.2032 130.397 43.2618 130.261 43.3095C130.097 43.3679 129.929 43.4138 129.759 43.4469C129.579 43.4822 129.394 43.5101 129.204 43.5308C129.03 43.5501 128.855 43.5603 128.68 43.5612C128.17 43.5612 127.778 43.4415 127.503 43.2022C127.229 42.9629 127.091 42.5987 127.09 42.1097C127.091 42.0023 127.098 41.8951 127.112 41.7887C127.128 41.6771 127.145 41.5599 127.165 41.4376L128.03 37.2818H127.03L127.394 35.7271Z" fill="#03588C"/>
<path d="M127.394 35.7271H128.364L128.662 34.2948L130.632 33.7324L130.214 35.7286H131.958L131.615 37.2832H129.884L129.153 40.7515C129.099 40.9726 129.069 41.1987 129.061 41.4264C129.061 41.6513 129.111 41.8047 129.21 41.8866C129.31 41.9685 129.459 42.0094 129.658 42.0094C129.832 42.0113 130.005 41.9896 130.173 41.9447C130.342 41.8952 130.505 41.8248 130.658 41.7352V43.1342C130.53 43.2032 130.397 43.2618 130.261 43.3095C130.097 43.3679 129.929 43.4138 129.759 43.4469C129.579 43.4822 129.394 43.5101 129.204 43.5308C129.03 43.5501 128.855 43.5603 128.68 43.5612C128.17 43.5612 127.778 43.4415 127.503 43.2022C127.229 42.9629 127.091 42.5987 127.09 42.1097C127.091 42.0023 127.098 41.8951 127.112 41.7887C127.128 41.6771 127.145 41.5599 127.165 41.4376L128.03 37.2818H127.03L127.394 35.7271Z" fill="black" fill-opacity="0.2"/>
<path d="M139.033 40.2995C138.953 40.6862 138.896 41.0775 138.862 41.4712C138.826 41.8671 138.809 42.243 138.809 42.5989C138.809 42.7414 138.812 42.876 138.817 43.0029C138.821 43.1297 138.829 43.2491 138.839 43.361H137.481L137.272 42.0486H137.212C137.092 42.2457 136.95 42.4274 136.787 42.59C136.611 42.7698 136.418 42.9329 136.213 43.0774C136.007 43.2231 135.784 43.3409 135.549 43.428C135.317 43.514 135.072 43.5579 134.825 43.5578C134.169 43.5578 133.684 43.3391 133.37 42.9016C133.057 42.4642 132.9 41.8801 132.9 41.1492C132.898 40.4285 132.99 39.7107 133.176 39.0153C133.345 38.3649 133.637 37.7542 134.034 37.217C134.426 36.6956 134.928 36.2711 135.502 35.9749C136.094 35.6653 136.798 35.5103 137.613 35.51C137.995 35.513 138.377 35.5462 138.755 35.6094C139.16 35.6737 139.561 35.7627 139.956 35.8761L139.033 40.2995ZM135.527 42.0065C135.701 42.0069 135.874 41.9675 136.031 41.8912C136.192 41.8139 136.34 41.7132 136.472 41.5921C136.604 41.472 136.724 41.3385 136.83 41.1938C136.934 41.0503 137.026 40.9174 137.105 40.7949L137.851 37.2216C137.729 37.1673 137.601 37.1287 137.47 37.1068C137.33 37.0815 137.188 37.0686 137.045 37.0684C136.7 37.0636 136.363 37.1793 136.09 37.3965C135.8 37.6307 135.558 37.9228 135.382 38.2551C135.179 38.63 135.031 39.0329 134.941 39.4512C134.842 39.8913 134.792 40.3414 134.792 40.793C134.786 41.0848 134.839 41.3748 134.949 41.6442C135.056 41.886 135.248 42.0068 135.527 42.0065Z" fill="#03588C"/>
<path d="M139.033 40.2995C138.953 40.6862 138.896 41.0775 138.862 41.4712C138.826 41.8671 138.809 42.243 138.809 42.5989C138.809 42.7414 138.812 42.876 138.817 43.0029C138.821 43.1297 138.829 43.2491 138.839 43.361H137.481L137.272 42.0486H137.212C137.092 42.2457 136.95 42.4274 136.787 42.59C136.611 42.7698 136.418 42.9329 136.213 43.0774C136.007 43.2231 135.784 43.3409 135.549 43.428C135.317 43.514 135.072 43.5579 134.825 43.5578C134.169 43.5578 133.684 43.3391 133.37 42.9016C133.057 42.4642 132.9 41.8801 132.9 41.1492C132.898 40.4285 132.99 39.7107 133.176 39.0153C133.345 38.3649 133.637 37.7542 134.034 37.217C134.426 36.6956 134.928 36.2711 135.502 35.9749C136.094 35.6653 136.798 35.5103 137.613 35.51C137.995 35.513 138.377 35.5462 138.755 35.6094C139.16 35.6737 139.561 35.7627 139.956 35.8761L139.033 40.2995ZM135.527 42.0065C135.701 42.0069 135.874 41.9675 136.031 41.8912C136.192 41.8139 136.34 41.7132 136.472 41.5921C136.604 41.472 136.724 41.3385 136.83 41.1938C136.934 41.0503 137.026 40.9174 137.105 40.7949L137.851 37.2216C137.729 37.1673 137.601 37.1287 137.47 37.1068C137.33 37.0815 137.188 37.0686 137.045 37.0684C136.7 37.0636 136.363 37.1793 136.09 37.3965C135.8 37.6307 135.558 37.9228 135.382 38.2551C135.179 38.63 135.031 39.0329 134.941 39.4512C134.842 39.8913 134.792 40.3414 134.792 40.793C134.786 41.0848 134.839 41.3748 134.949 41.6442C135.056 41.886 135.248 42.0068 135.527 42.0065Z" fill="black" fill-opacity="0.2"/>
<path d="M143.629 41.1057C143.568 41.401 143.57 41.6197 143.636 41.7618C143.662 41.8272 143.706 41.8828 143.764 41.9211C143.821 41.9595 143.889 41.9785 143.958 41.9756C144.23 41.977 144.499 41.9198 144.749 41.8078L144.703 43.1529C144.522 43.2635 144.262 43.3541 143.923 43.4247C143.592 43.4938 143.256 43.5291 142.918 43.5302C142.489 43.5302 142.161 43.4463 141.936 43.2785C141.712 43.1107 141.599 42.7983 141.599 42.3411C141.603 42.0695 141.634 41.7991 141.69 41.5336L143.526 32.6787H145.376L143.629 41.1057Z" fill="#03588C"/>
<path d="M143.629 41.1057C143.568 41.401 143.57 41.6197 143.636 41.7618C143.662 41.8272 143.706 41.8828 143.764 41.9211C143.821 41.9595 143.889 41.9785 143.958 41.9756C144.23 41.977 144.499 41.9198 144.749 41.8078L144.703 43.1529C144.522 43.2635 144.262 43.3541 143.923 43.4247C143.592 43.4938 143.256 43.5291 142.918 43.5302C142.489 43.5302 142.161 43.4463 141.936 43.2785C141.712 43.1107 141.599 42.7983 141.599 42.3411C141.603 42.0695 141.634 41.7991 141.69 41.5336L143.526 32.6787H145.376L143.629 41.1057Z" fill="black" fill-opacity="0.2"/>
<path d="M149.7 40.1927H149.118L148.476 43.3474H146.626L148.834 32.6792H150.684L149.371 38.9736L149.908 38.7754L152.012 35.7289H154.056L151.833 38.7927L150.927 39.3716L151.579 39.9509L152.715 43.3498H150.774L149.7 40.1927Z" fill="#03588C"/>
<path d="M149.7 40.1927H149.118L148.476 43.3474H146.626L148.834 32.6792H150.684L149.371 38.9736L149.908 38.7754L152.012 35.7289H154.056L151.833 38.7927L150.927 39.3716L151.579 39.9509L152.715 43.3498H150.774L149.7 40.1927Z" fill="black" fill-opacity="0.2"/>
<path d="M159.623 41.5645C159.866 41.6982 160.124 41.8016 160.391 41.8725C160.715 41.9633 161.049 42.0084 161.384 42.0065C161.732 42.0065 161.998 41.9374 162.182 41.7993C162.366 41.6612 162.463 41.4488 162.473 41.1619C162.477 40.9691 162.413 40.7811 162.294 40.6318C162.161 40.4713 162.008 40.3294 161.839 40.21C161.655 40.0769 161.459 39.9418 161.25 39.8046C161.039 39.6662 160.842 39.5081 160.66 39.3322C160.473 39.1503 160.319 38.9361 160.205 38.6995C160.086 38.4557 160.026 38.1611 160.026 37.8155C160.023 37.4949 160.089 37.1775 160.22 36.8861C160.347 36.6046 160.533 36.3548 160.764 36.1545C161.015 35.9419 161.304 35.7814 161.615 35.6821C161.98 35.5655 162.36 35.5089 162.742 35.5143C163.319 35.5143 163.796 35.5575 164.174 35.6441C164.552 35.7306 164.85 35.84 165.069 35.9722L164.562 37.4045C164.33 37.2979 164.087 37.2177 163.838 37.1654C163.547 37.1014 163.249 37.07 162.951 37.0717C162.632 37.0717 162.381 37.1281 162.197 37.2409C162.013 37.3537 161.921 37.533 161.922 37.779C161.922 37.8604 161.938 37.9411 161.968 38.0163C161.999 38.0915 162.044 38.1598 162.101 38.2172C162.24 38.3622 162.392 38.4936 162.556 38.6095C162.739 38.7426 162.936 38.8777 163.146 39.0149C163.359 39.1555 163.557 39.3205 163.734 39.5065C163.919 39.7013 164.073 39.925 164.189 40.1692C164.308 40.4192 164.368 40.716 164.368 41.0598C164.368 41.9034 164.099 42.5308 163.562 42.942C163.025 43.3532 162.309 43.5589 161.414 43.5593C160.945 43.5633 160.477 43.5148 160.018 43.4144C159.595 43.3179 159.27 43.1985 159.041 43.0564L159.623 41.5645Z" fill="#03588C"/>
<path d="M159.623 41.5645C159.866 41.6982 160.124 41.8016 160.391 41.8725C160.715 41.9633 161.049 42.0084 161.384 42.0065C161.732 42.0065 161.998 41.9374 162.182 41.7993C162.366 41.6612 162.463 41.4488 162.473 41.1619C162.477 40.9691 162.413 40.7811 162.294 40.6318C162.161 40.4713 162.008 40.3294 161.839 40.21C161.655 40.0769 161.459 39.9418 161.25 39.8046C161.039 39.6662 160.842 39.5081 160.66 39.3322C160.473 39.1503 160.319 38.9361 160.205 38.6995C160.086 38.4557 160.026 38.1611 160.026 37.8155C160.023 37.4949 160.089 37.1775 160.22 36.8861C160.347 36.6046 160.533 36.3548 160.764 36.1545C161.015 35.9419 161.304 35.7814 161.615 35.6821C161.98 35.5655 162.36 35.5089 162.742 35.5143C163.319 35.5143 163.796 35.5575 164.174 35.6441C164.552 35.7306 164.85 35.84 165.069 35.9722L164.562 37.4045C164.33 37.2979 164.087 37.2177 163.838 37.1654C163.547 37.1014 163.249 37.07 162.951 37.0717C162.632 37.0717 162.381 37.1281 162.197 37.2409C162.013 37.3537 161.921 37.533 161.922 37.779C161.922 37.8604 161.938 37.9411 161.968 38.0163C161.999 38.0915 162.044 38.1598 162.101 38.2172C162.24 38.3622 162.392 38.4936 162.556 38.6095C162.739 38.7426 162.936 38.8777 163.146 39.0149C163.359 39.1555 163.557 39.3205 163.734 39.5065C163.919 39.7013 164.073 39.925 164.189 40.1692C164.308 40.4192 164.368 40.716 164.368 41.0598C164.368 41.9034 164.099 42.5308 163.562 42.942C163.025 43.3532 162.309 43.5589 161.414 43.5593C160.945 43.5633 160.477 43.5148 160.018 43.4144C159.595 43.3179 159.27 43.1985 159.041 43.0564L159.623 41.5645Z" fill="black" fill-opacity="0.2"/>
<path d="M166.667 40.8787C166.667 40.076 166.779 39.3444 167.002 38.6839C167.226 38.0233 167.525 37.4593 167.898 36.9919C168.252 36.5405 168.694 36.1694 169.196 35.9022C169.673 35.6474 170.202 35.514 170.74 35.5137C171.218 35.5137 171.621 35.5899 171.949 35.7424C172.258 35.8798 172.531 36.0883 172.747 36.3517C172.952 36.6067 173.102 36.9025 173.187 37.2202C173.277 37.5475 173.322 37.886 173.322 38.226C173.322 39.0187 173.212 39.7426 172.993 40.3978C172.774 41.0531 172.481 41.6152 172.112 42.0842C171.763 42.5352 171.326 42.9065 170.827 43.1739C170.354 43.4297 169.826 43.5632 169.291 43.5629C168.823 43.5629 168.425 43.4848 168.098 43.3285C167.793 43.1891 167.521 42.9852 167.3 42.7303C167.078 42.4753 166.912 42.1752 166.813 41.8498C166.715 41.5358 166.666 41.2082 166.667 40.8787ZM168.562 40.6261C168.562 41.5463 168.885 42.0064 169.532 42.0064C169.77 42.0064 170.004 41.899 170.233 41.6844C170.483 41.4412 170.69 41.1558 170.845 40.8407C171.034 40.4665 171.176 40.07 171.27 39.6601C171.374 39.2284 171.426 38.7857 171.427 38.3413C171.427 37.9319 171.36 37.6176 171.225 37.3983C171.091 37.1789 170.84 37.0696 170.472 37.0702C170.233 37.0702 169.999 37.1723 169.77 37.3767C169.522 37.6069 169.315 37.8793 169.159 38.1819C168.969 38.543 168.823 38.9268 168.726 39.3246C168.617 39.7495 168.562 40.1869 168.562 40.6261Z" fill="#03588C"/>
<path d="M166.667 40.8787C166.667 40.076 166.779 39.3444 167.002 38.6839C167.226 38.0233 167.525 37.4593 167.898 36.9919C168.252 36.5405 168.694 36.1694 169.196 35.9022C169.673 35.6474 170.202 35.514 170.74 35.5137C171.218 35.5137 171.621 35.5899 171.949 35.7424C172.258 35.8798 172.531 36.0883 172.747 36.3517C172.952 36.6067 173.102 36.9025 173.187 37.2202C173.277 37.5475 173.322 37.886 173.322 38.226C173.322 39.0187 173.212 39.7426 172.993 40.3978C172.774 41.0531 172.481 41.6152 172.112 42.0842C171.763 42.5352 171.326 42.9065 170.827 43.1739C170.354 43.4297 169.826 43.5632 169.291 43.5629C168.823 43.5629 168.425 43.4848 168.098 43.3285C167.793 43.1891 167.521 42.9852 167.3 42.7303C167.078 42.4753 166.912 42.1752 166.813 41.8498C166.715 41.5358 166.666 41.2082 166.667 40.8787ZM168.562 40.6261C168.562 41.5463 168.885 42.0064 169.532 42.0064C169.77 42.0064 170.004 41.899 170.233 41.6844C170.483 41.4412 170.69 41.1558 170.845 40.8407C171.034 40.4665 171.176 40.07 171.27 39.6601C171.374 39.2284 171.426 38.7857 171.427 38.3413C171.427 37.9319 171.36 37.6176 171.225 37.3983C171.091 37.1789 170.84 37.0696 170.472 37.0702C170.233 37.0702 169.999 37.1723 169.77 37.3767C169.522 37.6069 169.315 37.8793 169.159 38.1819C168.969 38.543 168.823 38.9268 168.726 39.3246C168.617 39.7495 168.562 40.1869 168.562 40.6261Z" fill="black" fill-opacity="0.2"/>
<path d="M177.276 41.1057C177.214 41.401 177.217 41.6197 177.283 41.7618C177.308 41.8272 177.352 41.8828 177.41 41.9211C177.468 41.9595 177.535 41.9785 177.604 41.9756C177.876 41.977 178.146 41.9198 178.395 41.8078L178.349 43.1529C178.169 43.2635 177.909 43.3541 177.569 43.4247C177.238 43.4939 176.902 43.5292 176.564 43.5302C176.134 43.5302 175.807 43.4463 175.582 43.2785C175.358 43.1107 175.245 42.7983 175.245 42.3411C175.249 42.0696 175.279 41.7992 175.335 41.5336L177.17 32.6787H179.02L177.276 41.1057Z" fill="#03588C"/>
<path d="M177.276 41.1057C177.214 41.401 177.217 41.6197 177.283 41.7618C177.308 41.8272 177.352 41.8828 177.41 41.9211C177.468 41.9595 177.535 41.9785 177.604 41.9756C177.876 41.977 178.146 41.9198 178.395 41.8078L178.349 43.1529C178.169 43.2635 177.909 43.3541 177.569 43.4247C177.238 43.4939 176.902 43.5292 176.564 43.5302C176.134 43.5302 175.807 43.4463 175.582 43.2785C175.358 43.1107 175.245 42.7983 175.245 42.3411C175.249 42.0696 175.279 41.7992 175.335 41.5336L177.17 32.6787H179.02L177.276 41.1057Z" fill="black" fill-opacity="0.2"/>
<path d="M183.587 35.7271L182.617 40.4369C182.562 40.6871 182.532 40.9422 182.525 41.1985C182.525 41.4019 182.565 41.5594 182.645 41.6709C182.726 41.7825 182.866 41.8384 183.066 41.8387C183.246 41.8363 183.423 41.7921 183.584 41.7094C183.766 41.6194 183.935 41.5067 184.089 41.3738C184.4 41.1043 184.664 40.7821 184.869 40.4214L185.824 35.7271H187.659L186.719 40.2995C186.663 40.5355 186.621 40.7747 186.593 41.0157C186.557 41.2904 186.525 41.5716 186.495 41.8593C186.466 42.1471 186.446 42.4239 186.436 42.6898C186.426 42.9542 186.426 43.1729 186.436 43.346H184.96L184.885 41.9746H184.825C184.678 42.1772 184.516 42.3681 184.34 42.546C184.154 42.7365 183.949 42.9076 183.729 43.0568C183.502 43.2107 183.256 43.3336 182.998 43.4224C182.726 43.5152 182.441 43.5616 182.155 43.5597C181.687 43.5597 181.309 43.4404 181.021 43.2017C180.732 42.9629 180.588 42.5235 180.588 41.8832C180.593 41.4678 180.644 41.0542 180.738 40.6501L181.768 35.7289L183.587 35.7271Z" fill="#03588C"/>
<path d="M183.587 35.7271L182.617 40.4369C182.562 40.6871 182.532 40.9422 182.525 41.1985C182.525 41.4019 182.565 41.5594 182.645 41.6709C182.726 41.7825 182.866 41.8384 183.066 41.8387C183.246 41.8363 183.423 41.7921 183.584 41.7094C183.766 41.6194 183.935 41.5067 184.089 41.3738C184.4 41.1043 184.664 40.7821 184.869 40.4214L185.824 35.7271H187.659L186.719 40.2995C186.663 40.5355 186.621 40.7747 186.593 41.0157C186.557 41.2904 186.525 41.5716 186.495 41.8593C186.466 42.1471 186.446 42.4239 186.436 42.6898C186.426 42.9542 186.426 43.1729 186.436 43.346H184.96L184.885 41.9746H184.825C184.678 42.1772 184.516 42.3681 184.34 42.546C184.154 42.7365 183.949 42.9076 183.729 43.0568C183.502 43.2107 183.256 43.3336 182.998 43.4224C182.726 43.5152 182.441 43.5616 182.155 43.5597C181.687 43.5597 181.309 43.4404 181.021 43.2017C180.732 42.9629 180.588 42.5235 180.588 41.8832C180.593 41.4678 180.644 41.0542 180.738 40.6501L181.768 35.7289L183.587 35.7271Z" fill="black" fill-opacity="0.2"/>
<path d="M189.793 35.7271H190.763L191.062 34.2948L193.032 33.7324L192.614 35.7286H194.357L194.014 37.2832H192.283L191.552 40.7515C191.499 40.9725 191.468 41.1987 191.46 41.4264C191.46 41.6513 191.51 41.8047 191.61 41.8866C191.71 41.9685 191.859 42.0094 192.057 42.0094C192.232 42.0115 192.407 41.9894 192.576 41.9438C192.746 41.8944 192.909 41.824 193.061 41.7343V43.1342C192.934 43.2031 192.801 43.2617 192.664 43.3095C192.501 43.3678 192.333 43.4137 192.162 43.4469C191.982 43.482 191.798 43.5101 191.608 43.5308C191.434 43.5501 191.259 43.5603 191.084 43.5612C190.574 43.5612 190.182 43.4415 189.907 43.2022C189.632 42.9629 189.495 42.5987 189.494 42.1097C189.495 42.0023 189.502 41.895 189.517 41.7887C189.531 41.6771 189.549 41.5601 189.569 41.4376L190.434 37.2818H189.435L189.793 35.7271Z" fill="#03588C"/>
<path d="M189.793 35.7271H190.763L191.062 34.2948L193.032 33.7324L192.614 35.7286H194.357L194.014 37.2832H192.283L191.552 40.7515C191.499 40.9725 191.468 41.1987 191.46 41.4264C191.46 41.6513 191.51 41.8047 191.61 41.8866C191.71 41.9685 191.859 42.0094 192.057 42.0094C192.232 42.0115 192.407 41.9894 192.576 41.9438C192.746 41.8944 192.909 41.824 193.061 41.7343V43.1342C192.934 43.2031 192.801 43.2617 192.664 43.3095C192.501 43.3678 192.333 43.4137 192.162 43.4469C191.982 43.482 191.798 43.5101 191.608 43.5308C191.434 43.5501 191.259 43.5603 191.084 43.5612C190.574 43.5612 190.182 43.4415 189.907 43.2022C189.632 42.9629 189.495 42.5987 189.494 42.1097C189.495 42.0023 189.502 41.895 189.517 41.7887C189.531 41.6771 189.549 41.5601 189.569 41.4376L190.434 37.2818H189.435L189.793 35.7271Z" fill="black" fill-opacity="0.2"/>
<path d="M196.791 35.7271H198.641L197.059 43.3498H195.209L196.791 35.7271ZM197.074 33.5632C197.074 33.2279 197.181 32.9689 197.395 32.7861C197.61 32.6033 197.881 32.5118 198.209 32.5115C198.503 32.5031 198.791 32.6003 199.022 32.7861C199.245 32.9689 199.357 33.2279 199.358 33.5632C199.358 33.8885 199.246 34.145 199.022 34.3328C198.792 34.5226 198.504 34.6223 198.209 34.614C197.881 34.614 197.61 34.5203 197.395 34.3328C197.181 34.1453 197.074 33.8888 197.073 33.5632H197.074Z" fill="#03588C"/>
<path d="M196.791 35.7271H198.641L197.059 43.3498H195.209L196.791 35.7271ZM197.074 33.5632C197.074 33.2279 197.181 32.9689 197.395 32.7861C197.61 32.6033 197.881 32.5118 198.209 32.5115C198.503 32.5031 198.791 32.6003 199.022 32.7861C199.245 32.9689 199.357 33.2279 199.358 33.5632C199.358 33.8885 199.246 34.145 199.022 34.3328C198.792 34.5226 198.504 34.6223 198.209 34.614C197.881 34.614 197.61 34.5203 197.395 34.3328C197.181 34.1453 197.074 33.8888 197.073 33.5632H197.074Z" fill="black" fill-opacity="0.2"/>
<path d="M200.328 40.8787C200.328 40.076 200.44 39.3444 200.664 38.6839C200.887 38.0233 201.186 37.4593 201.559 36.9919C201.912 36.5408 202.354 36.1698 202.856 35.9022C203.332 35.6474 203.862 35.514 204.4 35.5137C204.877 35.5137 205.28 35.5899 205.608 35.7424C205.917 35.8798 206.19 36.0883 206.407 36.3517C206.611 36.6067 206.761 36.9025 206.847 37.2202C206.937 37.5475 206.982 37.886 206.981 38.226C206.981 39.0187 206.872 39.7426 206.653 40.3978C206.434 41.0531 206.141 41.6152 205.774 42.0842C205.425 42.5352 204.988 42.9065 204.49 43.1739C204.016 43.4297 203.488 43.5632 202.953 43.5629C202.485 43.5629 202.088 43.4848 201.76 43.3285C201.455 43.1891 201.183 42.9852 200.962 42.7303C200.74 42.4753 200.574 42.1752 200.475 41.8498C200.377 41.5359 200.327 41.2082 200.328 40.8787ZM202.223 40.6261C202.223 41.5463 202.546 42.0064 203.193 42.0064C203.431 42.0064 203.665 41.899 203.894 41.6844C204.144 41.4412 204.351 41.1558 204.506 40.8407C204.695 40.4665 204.838 40.07 204.931 39.6601C205.035 39.2284 205.087 38.7857 205.088 38.3413C205.088 37.9319 205.021 37.6176 204.886 37.3983C204.752 37.1789 204.501 37.0696 204.133 37.0702C203.894 37.0702 203.66 37.1723 203.431 37.3767C203.183 37.6069 202.976 37.8793 202.82 38.1819C202.63 38.543 202.484 38.9268 202.387 39.3246C202.278 39.7495 202.223 40.1869 202.223 40.6261Z" fill="#03588C"/>
<path d="M200.328 40.8787C200.328 40.076 200.44 39.3444 200.664 38.6839C200.887 38.0233 201.186 37.4593 201.559 36.9919C201.912 36.5408 202.354 36.1698 202.856 35.9022C203.332 35.6474 203.862 35.514 204.4 35.5137C204.877 35.5137 205.28 35.5899 205.608 35.7424C205.917 35.8798 206.19 36.0883 206.407 36.3517C206.611 36.6067 206.761 36.9025 206.847 37.2202C206.937 37.5475 206.982 37.886 206.981 38.226C206.981 39.0187 206.872 39.7426 206.653 40.3978C206.434 41.0531 206.141 41.6152 205.774 42.0842C205.425 42.5352 204.988 42.9065 204.49 43.1739C204.016 43.4297 203.488 43.5632 202.953 43.5629C202.485 43.5629 202.088 43.4848 201.76 43.3285C201.455 43.1891 201.183 42.9852 200.962 42.7303C200.74 42.4753 200.574 42.1752 200.475 41.8498C200.377 41.5359 200.327 41.2082 200.328 40.8787ZM202.223 40.6261C202.223 41.5463 202.546 42.0064 203.193 42.0064C203.431 42.0064 203.665 41.899 203.894 41.6844C204.144 41.4412 204.351 41.1558 204.506 40.8407C204.695 40.4665 204.838 40.07 204.931 39.6601C205.035 39.2284 205.087 38.7857 205.088 38.3413C205.088 37.9319 205.021 37.6176 204.886 37.3983C204.752 37.1789 204.501 37.0696 204.133 37.0702C203.894 37.0702 203.66 37.1723 203.431 37.3767C203.183 37.6069 202.976 37.8793 202.82 38.1819C202.63 38.543 202.484 38.9268 202.387 39.3246C202.278 39.7495 202.223 40.1869 202.223 40.6261Z" fill="black" fill-opacity="0.2"/>
<path d="M212.876 43.3498L213.861 38.6488C213.916 38.4049 213.946 38.1558 213.95 37.9055C213.95 37.683 213.906 37.5087 213.817 37.3825C213.728 37.2562 213.565 37.1937 213.328 37.195C213.142 37.1969 212.959 37.2437 212.794 37.3314C212.609 37.427 212.439 37.5497 212.289 37.6955C212.127 37.8518 211.978 38.0217 211.844 38.2036C211.71 38.3828 211.591 38.573 211.488 38.7721L210.534 43.3498H208.683L210.264 35.7294H211.668L211.594 37.0694H211.653C211.783 36.9072 211.934 36.7344 212.108 36.551C212.493 36.1516 212.962 35.849 213.481 35.6671C213.791 35.5612 214.117 35.5097 214.444 35.5147C214.892 35.5147 215.25 35.6397 215.519 35.8897C215.787 36.1397 215.922 36.5537 215.922 37.1317C215.922 37.284 215.914 37.4467 215.899 37.6196C215.881 37.8094 215.849 37.9974 215.802 38.182L214.726 43.3498H212.876Z" fill="#03588C"/>
<path d="M212.876 43.3498L213.861 38.6488C213.916 38.4049 213.946 38.1558 213.95 37.9055C213.95 37.683 213.906 37.5087 213.817 37.3825C213.728 37.2562 213.565 37.1937 213.328 37.195C213.142 37.1969 212.959 37.2437 212.794 37.3314C212.609 37.427 212.439 37.5497 212.289 37.6955C212.127 37.8518 211.978 38.0217 211.844 38.2036C211.71 38.3828 211.591 38.573 211.488 38.7721L210.534 43.3498H208.683L210.264 35.7294H211.668L211.594 37.0694H211.653C211.783 36.9072 211.934 36.7344 212.108 36.551C212.493 36.1516 212.962 35.849 213.481 35.6671C213.791 35.5612 214.117 35.5097 214.444 35.5147C214.892 35.5147 215.25 35.6397 215.519 35.8897C215.787 36.1397 215.922 36.5537 215.922 37.1317C215.922 37.284 215.914 37.4467 215.899 37.6196C215.881 37.8094 215.849 37.9974 215.802 38.182L214.726 43.3498H212.876Z" fill="black" fill-opacity="0.2"/>
<path d="M219.188 33.6394C219.185 33.4722 219.223 33.3068 219.299 33.159C219.435 32.9023 219.659 32.7066 219.929 32.6106C220.048 32.5665 220.173 32.5432 220.299 32.5417C220.645 32.5417 220.892 32.6333 221.04 32.8164C221.189 32.9995 221.263 33.2484 221.262 33.563C221.262 33.9798 221.186 34.3456 221.033 34.6602C220.891 34.9598 220.7 35.2329 220.47 35.4682C220.263 35.6792 220.029 35.8589 219.773 36.0016C219.57 36.1155 219.36 36.2124 219.142 36.2912L218.86 35.4528C219.068 35.3616 219.261 35.2383 219.432 35.0872C219.606 34.9343 219.732 34.733 219.796 34.5079C219.709 34.4985 219.625 34.4715 219.549 34.4282C219.472 34.385 219.405 34.3265 219.352 34.2562C219.232 34.109 219.178 33.9034 219.188 33.6394ZM221.62 33.6394C221.616 33.4722 221.655 33.3068 221.731 33.159C221.801 33.028 221.895 32.9118 222.007 32.8164C222.112 32.7265 222.232 32.6568 222.362 32.6106C222.481 32.5665 222.606 32.5432 222.733 32.5417C223.078 32.5417 223.325 32.6333 223.473 32.8164C223.621 32.9995 223.695 33.2484 223.695 33.563C223.695 33.9798 223.619 34.3456 223.466 34.6602C223.324 34.9598 223.133 35.2329 222.902 35.4682C222.696 35.6792 222.462 35.8589 222.205 36.0016C222.003 36.1154 221.793 36.2123 221.575 36.2912L221.294 35.4528C221.501 35.3614 221.694 35.2381 221.865 35.0872C222.039 34.934 222.165 34.7328 222.229 34.5079C222.142 34.4986 222.058 34.4715 221.982 34.4283C221.905 34.3851 221.838 34.3265 221.785 34.2562C221.665 34.109 221.611 33.9034 221.62 33.6394Z" fill="#03588C"/>
<path d="M219.188 33.6394C219.185 33.4722 219.223 33.3068 219.299 33.159C219.435 32.9023 219.659 32.7066 219.929 32.6106C220.048 32.5665 220.173 32.5432 220.299 32.5417C220.645 32.5417 220.892 32.6333 221.04 32.8164C221.189 32.9995 221.263 33.2484 221.262 33.563C221.262 33.9798 221.186 34.3456 221.033 34.6602C220.891 34.9598 220.7 35.2329 220.47 35.4682C220.263 35.6792 220.029 35.8589 219.773 36.0016C219.57 36.1155 219.36 36.2124 219.142 36.2912L218.86 35.4528C219.068 35.3616 219.261 35.2383 219.432 35.0872C219.606 34.9343 219.732 34.733 219.796 34.5079C219.709 34.4985 219.625 34.4715 219.549 34.4282C219.472 34.385 219.405 34.3265 219.352 34.2562C219.232 34.109 219.178 33.9034 219.188 33.6394ZM221.62 33.6394C221.616 33.4722 221.655 33.3068 221.731 33.159C221.801 33.028 221.895 32.9118 222.007 32.8164C222.112 32.7265 222.232 32.6568 222.362 32.6106C222.481 32.5665 222.606 32.5432 222.733 32.5417C223.078 32.5417 223.325 32.6333 223.473 32.8164C223.621 32.9995 223.695 33.2484 223.695 33.563C223.695 33.9798 223.619 34.3456 223.466 34.6602C223.324 34.9598 223.133 35.2329 222.902 35.4682C222.696 35.6792 222.462 35.8589 222.205 36.0016C222.003 36.1154 221.793 36.2123 221.575 36.2912L221.294 35.4528C221.501 35.3614 221.694 35.2381 221.865 35.0872C222.039 34.934 222.165 34.7328 222.229 34.5079C222.142 34.4986 222.058 34.4715 221.982 34.4283C221.905 34.3851 221.838 34.3265 221.785 34.2562C221.665 34.109 221.611 33.9034 221.62 33.6394Z" fill="black" fill-opacity="0.2"/>
</g>
<defs>
<clipPath id="clip0_466_3396">
<rect width="250" height="50" fill="white"/>
</clipPath>
</defs>
</svg>
