<svg xmlns="http://www.w3.org/2000/svg" width="20" height="17" viewBox="0 0 20 17" class="svg-inline--fa fa-w-18 fa-fw fa-lg"><path fill=" #817A7A" d="M7.70506912,3.7235023 L18.3225806,3.7235023 C18.6470046,3.7235023 18.9124424,3.45806452 18.9124424,3.13364055 L18.9124424,1.65898618 C18.9124424,1.33456221 18.6470046,1.06912442 18.3225806,1.06912442 L7.70506912,1.06912442 C7.38064516,1.06912442 7.11520737,1.33456221 7.11520737,1.65898618 L7.11520737,3.13364055 C7.11520737,3.45806452 7.38064516,3.7235023 7.70506912,3.7235023 Z M7.70506912,9.62211982 L18.3225806,9.62211982 C18.6470046,9.62211982 18.9124424,9.35668203 18.9124424,9.03225806 L18.9124424,7.55760369 C18.9124424,7.23317972 18.6470046,6.96774194 18.3225806,6.96774194 L7.70506912,6.96774194 C7.38064516,6.96774194 7.11520737,7.23317972 7.11520737,7.55760369 L7.11520737,9.03225806 C7.11520737,9.35668203 7.38064516,9.62211982 7.70506912,9.62211982 Z M7.70506912,15.5207373 L18.3225806,15.5207373 C18.6470046,15.5207373 18.9124424,15.2552995 18.9124424,14.9308756 L18.9124424,13.4562212 C18.9124424,13.1317972 18.6470046,12.8663594 18.3225806,12.8663594 L7.70506912,12.8663594 C7.38064516,12.8663594 7.11520737,13.1317972 7.11520737,13.4562212 L7.11520737,14.9308756 C7.11520737,15.2552995 7.38064516,15.5207373 7.70506912,15.5207373 Z M2.39631336,12.4239631 C1.41935484,12.4239631 0.604608295,13.2165899 0.604608295,14.1935484 C0.604608295,15.1705069 1.41935484,15.9631336 2.39631336,15.9631336 C3.37327189,15.9631336 4.16589862,15.1705069 4.16589862,14.1935484 C4.16589862,13.2165899 3.37327189,12.4239631 2.39631336,12.4239631 Z M5.80645161,1.40092166 L3.14470046,4.06267281 L2.56958525,4.63778802 C2.39631336,4.81105991 2.09400922,4.81105991 1.92073733,4.63778802 L0.165898618,2.89032258 C-0.00737327189,2.71705069 -0.00737327189,2.43686636 0.165898618,2.26359447 L0.744700461,1.68479263 C0.91797235,1.51152074 1.19815668,1.51152074 1.37142857,1.68479263 L2.20829493,2.49953917 L4.55668203,0.165898618 C4.72995392,-0.00737327189 5.01013825,-0.00737327189 5.18341014,0.165898618 L5.81013825,0.774193548 C5.9797235,0.947465438 5.9797235,1.22764977 5.80645161,1.40092166 L5.80645161,1.40092166 Z M5.80645161,7.28479263 L3.14470046,9.94654378 L2.56589862,10.5253456 C2.39262673,10.6986175 2.09032258,10.6986175 1.91705069,10.5253456 L0.165898618,8.77419355 C-0.00737327189,8.60092166 -0.00737327189,8.32073733 0.165898618,8.14746544 L0.744700461,7.56866359 C0.91797235,7.39539171 1.19815668,7.39539171 1.37142857,7.56866359 L2.20829493,8.38341014 L4.55668203,6.03502304 C4.72995392,5.86175115 5.01013825,5.86175115 5.18341014,6.03502304 L5.81013825,6.66175115 C5.9797235,6.83133641 5.9797235,7.11152074 5.80645161,7.28479263 L5.80645161,7.28479263 Z"></path></svg>