<svg width="29" height="29" viewBox="0 0 29 29" fill="none" xmlns="http://www.w3.org/2000/svg">
<path d="M1.08655 1.08655C1.27229 0.900333 1.49294 0.752594 1.73587 0.65179C1.9788 0.550986 2.23923 0.4991 2.50224 0.4991C2.76525 0.4991 3.02568 0.550986 3.26861 0.65179C3.51153 0.752594 3.73219 0.900333 3.91793 1.08655L14.4996 11.6722L25.0813 1.08655C25.2672 0.900634 25.4879 0.753161 25.7308 0.652547C25.9737 0.551932 26.2341 0.500147 26.497 0.500147C26.7599 0.500147 27.0203 0.551932 27.2632 0.652547C27.5061 0.753161 27.7268 0.900634 27.9127 1.08655C28.0986 1.27246 28.2461 1.49317 28.3467 1.73607C28.4473 1.97897 28.4991 2.23932 28.4991 2.50224C28.4991 2.76516 28.4473 3.0255 28.3467 3.26841C28.2461 3.51131 28.0986 3.73202 27.9127 3.91793L17.327 14.4996L27.9127 25.0813C28.0986 25.2672 28.2461 25.4879 28.3467 25.7308C28.4473 25.9737 28.4991 26.2341 28.4991 26.497C28.4991 26.7599 28.4473 27.0203 28.3467 27.2632C28.2461 27.5061 28.0986 27.7268 27.9127 27.9127C27.7268 28.0986 27.5061 28.2461 27.2632 28.3467C27.0203 28.4473 26.7599 28.4991 26.497 28.4991C26.2341 28.4991 25.9737 28.4473 25.7308 28.3467C25.4879 28.2461 25.2672 28.0986 25.0813 27.9127L14.4996 17.327L3.91793 27.9127C3.73202 28.0986 3.51131 28.2461 3.26841 28.3467C3.0255 28.4473 2.76516 28.4991 2.50224 28.4991C2.23932 28.4991 1.97897 28.4473 1.73607 28.3467C1.49317 28.2461 1.27246 28.0986 1.08655 27.9127C0.900634 27.7268 0.753161 27.5061 0.652547 27.2632C0.551932 27.0203 0.500147 26.7599 0.500147 26.497C0.500147 26.2341 0.551932 25.9737 0.652547 25.7308C0.753161 25.4879 0.900634 25.2672 1.08655 25.0813L11.6722 14.4996L1.08655 3.91793C0.900333 3.73219 0.752594 3.51153 0.65179 3.26861C0.550986 3.02568 0.4991 2.76525 0.4991 2.50224C0.4991 2.23923 0.550986 1.9788 0.65179 1.73587C0.752594 1.49294 0.900333 1.27229 1.08655 1.08655Z" fill="#03588C"/>
</svg>
