<svg width="18" height="18" viewBox="0 0 20 20" fill="none" xmlns="http://www.w3.org/2000/svg" class="svg-inline--fa fa-w-18 fa-fw fa-lg"><path d="M2.2086 2.22215C2.07649 2.3471 2 2.5276 2 2.70809V10.3513C2 10.7331 2.30595 11.0455 2.69535 11.0455H8.25815C8.64059 11.0455 8.9535 10.7331 8.9535 10.3513V2.71503C8.9535 2.32628 8.64059 2.02083 8.25815 2.02083L2.69535 2.00694V2C2.50761 2 2.33377 2.06942 2.20165 2.20132L2.2086 2.22215Z" fill=" #817A7A"></path> <path d="M17.2972 2.00902L11.7344 2.01597C11.345 2.01597 11.0391 2.32142 11.0391 2.71017V6.18119C11.0391 6.563 11.345 6.87539 11.7344 6.87539H17.2972C17.6797 6.87539 17.9926 6.563 17.9926 6.18119V2.6942C17.9926 2.30545 17.6797 2 17.2972 2V2.00902Z" fill="#817A7A"></path> <path d="M8.75184 17.7655C8.87701 17.6336 8.9535 17.4531 8.9535 17.2726V13.8016C8.9535 13.4129 8.64059 13.1074 8.25815 13.1074H2.69535C2.30595 13.1074 2 13.4129 2 13.8016V17.2588C2 17.6406 2.30595 17.953 2.69535 17.953L8.25815 17.9599V17.9592C8.43894 17.9592 8.61277 17.8829 8.74489 17.751L8.75184 17.7655Z" fill=" #817A7A"></path> <path d="M17.2972 8.94745H11.7344C11.345 8.94745 11.0391 9.2529 11.0391 9.64165V17.2779C11.0391 17.6597 11.345 17.9721 11.7344 17.9721L17.2972 17.9582C17.6797 17.9582 17.9926 17.6458 17.9926 17.264V9.6361C17.9926 9.24734 17.6797 8.94189 17.2972 8.94189V8.94745Z" fill=" #817A7A"></path></svg>