<svg xmlns="http://www.w3.org/2000/svg" width="16" height="19" viewBox="0 0 16 19" class="svg-inline--fa fa-w-18 fa-fw fa-lg"><path fill=" #817A7A" d="M14.7857143,5.14285714 C14.1010714,5.14285714 13.5,4.52507143 13.5,3.85714286 L13.5,1.30564286 L13.5,1.30435714 L16.7142857,5.14285714 L14.7857143,5.14285714 L14.7857143,5.14285714 Z M13.5,10.296 L7.71428571,10.296 C7.35942857,10.296 7.07142857,10.008 7.07142857,9.65378571 C7.07142857,9.29892857 7.35942857,9.01157143 7.71428571,9.01157143 L13.5,9.01157143 C13.8548571,9.01157143 14.1428571,9.29892857 14.1428571,9.65378571 C14.1428571,10.008 13.8548571,10.296 13.5,10.296 L13.5,10.296 Z M13.5,13.5070714 L7.71428571,13.5070714 C7.35942857,13.5070714 7.07142857,13.2190714 7.07142857,12.8648571 C7.07142857,12.51 7.35942857,12.2226429 7.71428571,12.2226429 L13.5,12.2226429 C13.8548571,12.2226429 14.1428571,12.51 14.1428571,12.8648571 C14.1428571,13.2190714 13.8548571,13.5070714 13.5,13.5070714 L13.5,13.5070714 Z M12.2142857,19.2857143 L2.57142857,19.2857143 C1.89642857,19.2857143 1.28571429,18.6550714 1.28571429,18 L1.28571429,5.14285714 C1.28571429,4.18692857 2.07257143,3.85714286 3.21428571,3.85714286 L3.21428571,15.4285714 C3.21428571,16.7522143 4.42542857,18 5.78571429,18 C5.78571429,18 12.7555714,17.9929286 13.5057857,17.9929286 C13.5057857,18.7727143 12.9940714,19.2857143 12.2142857,19.2857143 L12.2142857,19.2857143 Z M13.5,0.0199285714 C13.4202857,0.0199285714 5.78571429,0 5.78571429,0 C4.42542857,0 3.21428571,1.24778571 3.21428571,2.57142857 L2.47178571,2.58878571 C1.1115,2.58878571 0,3.81921429 0,5.14285714 L0,18 C0,19.3236429 1.21114286,20.5714286 2.57142857,20.5714286 L12.2142857,20.5714286 C13.5745714,20.5714286 14.7857143,19.3236429 14.7857143,18 L15.4285714,18 C16.7888571,18 18,16.7522143 18,15.4285714 L18,5.15764286 L13.5,0.0199285714 L13.5,0.0199285714 Z"></path></svg>