<svg width="16" height="11" viewBox="0 0 16 11" fill="none" xmlns="http://www.w3.org/2000/svg">
<path d="M8 0C6.68024 0.00413852 5.40548 0.480135 4.406 1.342C3.64 2.002 3.085 2.862 2.942 3.725C1.266 4.095 0 5.555 0 7.318C0 9.366 1.708 11 3.781 11H12.687C14.502 11 16 9.57 16 7.773C16 6.137 14.758 4.804 13.166 4.579C12.923 1.999 10.69 0 8 0ZM10.354 6.854L8.354 8.854C8.30755 8.90056 8.25238 8.93751 8.19163 8.96271C8.13089 8.98792 8.06577 9.00089 8 9.00089C7.93423 9.00089 7.86911 8.98792 7.80837 8.96271C7.74762 8.93751 7.69245 8.90056 7.646 8.854L5.646 6.854C5.59951 6.80751 5.56264 6.75232 5.53748 6.69158C5.51232 6.63084 5.49937 6.56574 5.49937 6.5C5.49937 6.43426 5.51232 6.36916 5.53748 6.30842C5.56264 6.24768 5.59951 6.19249 5.646 6.146C5.73989 6.05211 5.86722 5.99937 6 5.99937C6.06574 5.99937 6.13084 6.01232 6.19158 6.03748C6.25232 6.06264 6.30751 6.09951 6.354 6.146L7.5 7.293V3.5C7.5 3.36739 7.55268 3.24021 7.64645 3.14645C7.74021 3.05268 7.86739 3 8 3C8.13261 3 8.25979 3.05268 8.35355 3.14645C8.44732 3.24021 8.5 3.36739 8.5 3.5V7.293L9.646 6.146C9.73989 6.05211 9.86722 5.99937 10 5.99937C10.1328 5.99937 10.2601 6.05211 10.354 6.146C10.4479 6.23989 10.5006 6.36722 10.5006 6.5C10.5006 6.63278 10.4479 6.76011 10.354 6.854Z" fill="#817A7A"/>
</svg>
