<svg width="24" height="25" viewBox="0 0 24 25" fill="none" xmlns="http://www.w3.org/2000/svg">
<g clip-path="url(#clip0_1_2)">
<path d="M16.8976 7.19384H16.036C15.8029 7.19384 15.5311 6.98288 15.4424 6.73306C15.3603 6.50154 15.2638 6.27109 15.1559 6.04796C15.041 5.81067 15.0833 5.47103 15.2482 5.3062L15.8614 4.69285C16.2911 4.26321 16.2911 3.56403 15.8614 3.13434L14.866 2.13889C14.6578 1.93073 14.3811 1.81613 14.0867 1.81613C13.7923 1.81613 13.5156 1.93073 13.3074 2.13889L12.6941 2.75224C12.5956 2.85068 12.4316 2.90946 12.2556 2.90946C12.1454 2.90946 12.0405 2.88693 11.9525 2.84431C11.7293 2.73631 11.4985 2.63972 11.2665 2.55717C11.0168 2.46853 10.8058 2.19671 10.8058 1.96366V1.10202C10.8058 0.494427 10.3114 0 9.70372 0H8.2956C7.68784 0 7.19353 0.494427 7.19353 1.10202V1.96366C7.19353 2.19679 6.9826 2.46865 6.73286 2.55717C6.50113 2.63948 6.2704 2.73583 6.04743 2.84359C5.96088 2.88545 5.85348 2.9085 5.74499 2.9085C5.56828 2.9085 5.40386 2.8496 5.30514 2.75092L4.69278 2.13881C4.48461 1.93065 4.20786 1.81605 3.91339 1.81605C3.61903 1.81605 3.34228 1.93065 3.13412 2.13869L2.13765 3.13454C1.92936 3.34258 1.81476 3.61929 1.81464 3.91368C1.81464 4.20803 1.92924 4.48477 2.13741 4.69293L2.75077 5.30628C2.91571 5.47123 2.95809 5.81112 2.84324 6.04856C2.7356 6.27129 2.63924 6.50162 2.55709 6.73326C2.46846 6.98292 2.19675 7.19392 1.96358 7.19392H1.10204C0.494316 7.19392 0 7.68834 0 8.29593V9.70407C0 10.3117 0.494316 10.8061 1.10204 10.8061H1.96358C2.19675 10.8061 2.46858 11.0169 2.55721 11.2666C2.63924 11.4976 2.7356 11.7281 2.8436 11.9513C2.95837 12.1886 2.91587 12.5285 2.75081 12.6936L2.13745 13.3069C1.7078 13.7365 1.7078 14.4357 2.13745 14.8654L3.13432 15.8624C3.34248 16.0705 3.61923 16.1851 3.91359 16.1851C4.20794 16.1851 4.48469 16.0705 4.69286 15.8624L5.30622 15.249C5.4049 15.1503 5.56924 15.0915 5.74579 15.0915C5.85588 15.0915 5.96044 15.1139 6.04823 15.1564C6.27136 15.2642 6.50173 15.3606 6.7331 15.4428C6.98272 15.5314 7.19377 15.8032 7.19377 16.0364V16.898C7.19377 17.5056 7.68812 18 8.29576 18H9.70396C10.3116 18 10.806 17.5056 10.806 16.898V16.0364C10.806 15.8032 11.017 15.5314 11.2666 15.4429C11.4984 15.3606 11.7292 15.2642 11.9521 15.1565C12.0386 15.1146 12.146 15.0916 12.2545 15.0916C12.4312 15.0916 12.5956 15.1505 12.6943 15.2492L13.3076 15.8625C13.5158 16.0706 13.7924 16.1852 14.0867 16.1852C14.3812 16.1852 14.658 16.0705 14.8661 15.8622L15.8621 14.8658C16.2914 14.436 16.2914 13.7368 15.8619 13.3071L15.2491 12.6941C15.0843 12.5293 15.042 12.1894 15.1567 11.9519C15.2645 11.7291 15.3607 11.4985 15.443 11.2669C15.5315 11.0172 15.8033 10.8063 16.0364 10.8063H16.8979C17.5057 10.8063 18 10.3119 18 9.70431V8.29617C17.9996 7.68818 17.5052 7.19384 16.8976 7.19384ZM12 8.99998C12 10.6542 10.6541 12 8.99996 12C7.34585 12 6 10.6542 6 8.99998C6 7.34582 7.34585 6 8.99996 6C10.6541 6 12 7.34571 12 8.99998Z" fill="#817A7A"/>
<path d="M23.3876 18.9966H22.9089C22.7794 18.9966 22.6284 18.8794 22.5791 18.7406C22.5335 18.612 22.4799 18.4839 22.42 18.36C22.3561 18.2282 22.3796 18.0395 22.4712 17.9479L22.8119 17.6071C23.0506 17.3684 23.0506 16.98 22.8119 16.7413L22.2589 16.1883C22.1432 16.0726 21.9895 16.009 21.8259 16.009C21.6624 16.009 21.5087 16.0726 21.393 16.1883L21.0523 16.529C20.9975 16.5837 20.9064 16.6164 20.8087 16.6164C20.7474 16.6164 20.6892 16.6039 20.6403 16.5802C20.5163 16.5202 20.3881 16.4665 20.2591 16.4206C20.1204 16.3714 20.0032 16.2204 20.0032 16.0909V15.6122C20.0032 15.2747 19.7286 15 19.391 15H18.6087C18.271 15 17.9964 15.2747 17.9964 15.6122V16.0909C17.9964 16.2204 17.8792 16.3715 17.7405 16.4206C17.6117 16.4664 17.4836 16.5199 17.3597 16.5798C17.3116 16.603 17.2519 16.6158 17.1917 16.6158C17.0935 16.6158 17.0021 16.5831 16.9473 16.5283L16.6071 16.1882C16.4915 16.0726 16.3377 16.0089 16.1741 16.0089C16.0106 16.0089 15.8568 16.0726 15.7412 16.1882L15.1876 16.7414C15.0719 16.857 15.0082 17.0107 15.0081 17.1743C15.0081 17.3378 15.0718 17.4915 15.1874 17.6072L15.5282 17.9479C15.6198 18.0396 15.6434 18.2284 15.5796 18.3603C15.5198 18.484 15.4662 18.612 15.4206 18.7407C15.3714 18.8794 15.2204 18.9966 15.0909 18.9966H14.6122C14.2746 18.9966 14 19.2713 14 19.6089V20.3911C14 20.7287 14.2746 21.0034 14.6122 21.0034H15.0909C15.2204 21.0034 15.3714 21.1205 15.4207 21.2592C15.4662 21.3876 15.5198 21.5156 15.5798 21.6396C15.6435 21.7714 15.6199 21.9603 15.5282 22.052L15.1875 22.3927C14.9488 22.6314 14.9488 23.0199 15.1875 23.2585L15.7413 23.8124C15.8569 23.9281 16.0107 23.9917 16.1742 23.9917C16.3377 23.9917 16.4915 23.9281 16.6071 23.8124L16.9479 23.4717C17.0027 23.4168 17.094 23.3841 17.1921 23.3841C17.2533 23.3841 17.3114 23.3966 17.3601 23.4202C17.4841 23.4801 17.6121 23.5337 17.7406 23.5793C17.8793 23.6285 17.9965 23.7796 17.9965 23.9091V24.3878C17.9965 24.7253 18.2712 25 18.6088 25H19.3911C19.7287 25 20.0033 24.7253 20.0033 24.3878V23.9091C20.0033 23.7796 20.1205 23.6285 20.2592 23.5794C20.388 23.5336 20.5162 23.4801 20.6401 23.4203C20.6881 23.397 20.7478 23.3842 20.8081 23.3842C20.9062 23.3842 20.9975 23.4169 21.0524 23.4718L21.3931 23.8125C21.5088 23.9281 21.6624 23.9918 21.826 23.9918C21.9896 23.9918 22.1433 23.9281 22.259 23.8124L22.8123 23.2588C23.0508 23.02 23.0508 22.6316 22.8122 22.3929L22.4717 22.0523C22.3802 21.9607 22.3567 21.7719 22.4204 21.64C22.4803 21.5162 22.5337 21.3881 22.5794 21.2594C22.6286 21.1207 22.7796 21.0035 22.9091 21.0035H23.3877C23.7254 21.0035 24 20.7288 24 20.3913V19.609C23.9998 19.2712 23.7251 18.9966 23.3876 18.9966ZM21 20C21 21.1028 20.1028 22 19 22C17.8972 22 17 21.1028 17 20C17 18.8972 17.8972 18 19 18C20.1028 18 21 18.8971 21 20Z" fill="#817A7A"/>
</g>
<defs>
<clipPath id="clip0_1_2">
<rect width="24" height="25" fill="white"/>
</clipPath>
</defs>
</svg>
