<svg width="24px" height="25px" viewBox="0 0 24 25" version="1.1" xmlns="http://www.w3.org/2000/svg" xmlns:xlink="http://www.w3.org/1999/xlink" id="el_H49_Qr5jr"><g id="el__-tuFySutW" fill-rule="evenodd"><g id="el_opsr812xa7" fill-rule="nonzero"><g id="el_MK7DSEQZsc"><g id="el_D8X-b6A5bX_an_v20KIKWuF" data-animator-group="true" data-animator-type="1"><path d="M16.8976039,7.19383767 L16.0360231,7.19383767 C15.8028909,7.19383767 15.5310634,6.98287798 15.4424283,6.7330636 C15.3602758,6.50153614 15.2637577,6.27108908 15.155915,6.04796479 C15.0410296,5.81067514 15.0833263,5.47102683 15.2481515,5.30620457 L15.8614341,4.69285286 C16.291124,4.26321055 16.291124,3.56402641 15.8614341,3.13434409 L14.8659603,2.13888802 C14.657758,1.93072939 14.3810885,1.81612609 14.0866521,1.81612609 C13.7923356,1.81612609 13.5155862,1.93072939 13.3074238,2.13888802 L12.6940612,2.75223974 C12.5955823,2.85067692 12.4315974,2.90945913 12.2556078,2.90945913 C12.1454042,2.90945913 12.0405227,2.88693062 11.9525279,2.84431452 C11.7293196,2.73631372 11.4985083,2.63971723 11.2664565,2.55716604 C11.0167577,2.46853256 10.8057943,2.19670987 10.8057943,1.96366183 L10.8057943,1.10201632 C10.8057943,0.494426783 10.3114387,0 9.70371836,0 L8.29560137,0 C7.68784097,0 7.19352544,0.494426783 7.19352544,1.10201632 L7.19352544,1.96366183 C7.19352544,2.1967899 6.98260201,2.4686526 6.73286322,2.55716604 C6.50113156,2.63947714 6.27040029,2.73583354 6.0474321,2.84359425 C5.96087786,2.88545006 5.85347537,2.90849877 5.74499246,2.90849877 C5.56828257,2.90849877 5.40385753,2.84959651 5.30513848,2.75091924 L4.69277625,2.13880799 C4.48461391,1.93064936 4.20786444,1.81604606 3.91338796,1.81604606 C3.61903153,1.81604606 3.34228206,1.93064936 3.13411972,2.13868795 L2.13764556,3.13454416 C1.92936317,3.34258275 1.81475784,3.61928729 1.81463779,3.9136785 C1.81463779,4.2080297 1.92924312,4.48477425 2.13740546,4.69293289 L2.75076808,5.3062846 C2.91571333,5.47122691 2.95809009,5.81111531 2.84324466,6.04856501 C2.73560208,6.27128915 2.63924397,6.50161617 2.55709147,6.73326368 C2.46845641,6.98291799 2.19674894,7.1939177 1.9635767,7.1939177 L1.10203592,7.1939177 C0.494315529,7.1939177 0,7.68834449 0,8.29593402 L0,9.70406598 C0,10.3116555 0.494315529,10.8060823 1.10203592,10.8060823 L1.9635767,10.8060823 C2.19674894,10.8060823 2.46857646,11.0169219 2.55721152,11.2666163 C2.63924397,11.4976235 2.73560208,11.7280706 2.8436048,11.9513149 C2.9583702,12.1886046 2.91587339,12.528533 2.7508081,12.6935954 L2.13744548,13.3069071 C1.70779553,13.7365494 1.70779553,14.4357335 2.13744548,14.8653758 L3.1343198,15.8623524 C3.34248214,16.0705111 3.61923161,16.1851144 3.91358804,16.1851144 C4.20794448,16.1851144 4.48469395,16.0705111 4.69285629,15.8623524 L5.3062189,15.2490407 C5.40489794,15.1503235 5.56924294,15.0914612 5.74579278,15.0914612 C5.85587632,15.0914612 5.96043768,15.1138697 6.04823241,15.1563657 C6.27136067,15.2642065 6.5017318,15.3606029 6.73310332,15.4427539 C6.98272205,15.5313874 7.19376553,15.8032101 7.19376553,16.0363782 L7.19376553,16.8980237 C7.19376553,17.5056132 7.68812108,18 8.29576143,18 L9.70395845,18 C10.3116388,18 10.8059544,17.5056132 10.8059544,16.8980237 L10.8059544,16.0363782 C10.8059544,15.8032101 11.0169578,15.5313874 11.2666166,15.442874 C11.4984283,15.3605629 11.7291595,15.2642065 11.9521277,15.1564858 C12.038642,15.11459 12.1460444,15.0915813 12.2545273,15.0915813 C12.4312372,15.0915813 12.5955823,15.1504835 12.6943013,15.2491608 L13.3075839,15.8624725 C13.5157862,16.0706311 13.7923757,16.1852344 14.0867321,16.1852344 C14.3812086,16.1852344 14.657958,16.0705111 14.8661204,15.8622324 L15.8620743,14.865776 C16.2914442,14.4360136 16.2914442,13.7368295 15.8619143,13.3071471 L15.2491119,12.6940755 C15.0842867,12.5292933 15.0419899,12.1893649 15.1567153,11.9519152 C15.2644779,11.729071 15.360716,11.4985039 15.4429886,11.2668564 C15.5315436,11.0172021 15.8032911,10.8063224 16.0364233,10.8063224 L16.8979241,10.8063224 C17.5056845,10.8063224 18,10.3118956 18,9.70430607 L18,8.29617411 C17.9995998,7.68818443 17.5051643,7.19383767 16.8976039,7.19383767 Z M12,8.99998141 C12,10.6541771 10.6541483,12 8.99996283,12 C7.34585171,12 6,10.6541771 6,8.99998141 C6,7.34582288 7.34585171,6 8.99996283,6 C10.6541483,6 12,7.34571137 12,8.99998141 Z" id="el_D8X-b6A5bX"></path></g> <g id="el_Jy-gexKuRR_an_hVkWqNTlC" data-animator-group="true" data-animator-type="1"><path d="M23.3875577,18.9965765 L22.9089017,18.9965765 C22.7793838,18.9965765 22.6283686,18.8793767 22.5791269,18.7405909 C22.5334866,18.6119645 22.4798654,18.4839384 22.4199528,18.3599804 C22.3561275,18.2281529 22.3796257,18.0394594 22.4711953,17.9478914 L22.8119078,17.6071405 C23.0506245,17.3684503 23.0506245,16.9800147 22.8119078,16.7413023 L22.2588668,16.1882711 C22.1431989,16.0726274 21.9894936,16.0089589 21.8259178,16.0089589 C21.6624087,16.0089589 21.508659,16.0726274 21.3930132,16.1882711 L21.0522562,16.5290221 C20.9975457,16.5837094 20.906443,16.6163662 20.808671,16.6163662 C20.7474468,16.6163662 20.6891793,16.6038503 20.6402933,16.5801747 C20.5162887,16.5201743 20.3880602,16.4665096 20.2591425,16.4206478 C20.120421,16.371407 20.0032191,16.2203944 20.0032191,16.0909232 L20.0032191,15.6122313 C20.0032191,15.2746815 19.7285771,15 19.3909546,15 L18.6086674,15 C18.2710228,15 17.996403,15.2746815 17.996403,15.6122313 L17.996403,16.0909232 C17.996403,16.2204388 17.8792233,16.3714737 17.7404796,16.4206478 C17.6117398,16.4663762 17.4835557,16.5199075 17.3596845,16.5797746 C17.3115988,16.6030278 17.2519308,16.6158326 17.1916625,16.6158326 C17.0934903,16.6158326 17.0021431,16.5831092 16.9472992,16.5282885 L16.6070979,16.1882267 C16.4914522,16.072583 16.3377025,16.0089145 16.1741044,16.0089145 C16.0105731,16.0089145 15.8568234,16.072583 15.7411776,16.18816 L15.1875809,16.7414134 C15.0718684,16.8569904 15.0081988,17.0107152 15.0081321,17.1742658 C15.0081321,17.3377943 15.0718017,17.4915412 15.1874475,17.6071849 L15.5282045,17.9479359 C15.6198407,18.0395705 15.6433834,18.2283974 15.5795804,18.3603139 C15.5197789,18.4840495 15.4662466,18.612009 15.4206064,18.740702 C15.3713647,18.8793989 15.2204161,18.9966209 15.0908759,18.9966209 L14.6122422,18.9966209 C14.2746197,18.9966209 14,19.2713025 14,19.6088522 L14,20.3911478 C14,20.7286975 14.2746197,21.0033791 14.6122422,21.0033791 L15.0908759,21.0033791 C15.2204161,21.0033791 15.3714314,21.1205122 15.4206731,21.2592313 C15.4662466,21.3875686 15.5197789,21.5155948 15.5797804,21.6396194 C15.643539,21.771447 15.6199297,21.9602961 15.5282267,22.0519974 L15.1874697,22.3927261 C14.9487753,22.6314163 14.9487753,23.0198519 15.1874697,23.2585421 L15.7412888,23.812418 C15.8569345,23.9280617 16.0106842,23.9917302 16.1742156,23.9917302 C16.3377469,23.9917302 16.4914966,23.9280617 16.6071424,23.812418 L16.9478994,23.4716893 C17.0027211,23.4168464 17.0940239,23.3841451 17.1921071,23.3841451 C17.2532646,23.3841451 17.3113543,23.3965943 17.3601291,23.4202032 C17.4840893,23.4801147 17.6120732,23.5336683 17.740613,23.5793077 C17.87929,23.6285486 17.9965364,23.7795612 17.9965364,23.909099 L17.9965364,24.3877909 C17.9965364,24.7253407 18.2711784,25 18.6087564,25 L19.391088,25 C19.7286882,25 20.003308,24.7253407 20.003308,24.3877909 L20.003308,23.909099 C20.003308,23.7795612 20.1205321,23.6285486 20.2592314,23.5793744 C20.3880157,23.533646 20.5161997,23.4801147 20.640071,23.4202699 C20.6881344,23.3969944 20.7478025,23.3842118 20.8080707,23.3842118 C20.9062429,23.3842118 20.9975457,23.4169353 21.0523896,23.471756 L21.3931022,23.8124847 C21.5087701,23.9281284 21.6624309,23.9917969 21.8259623,23.9917969 C21.9895603,23.9917969 22.14331,23.9280617 22.2589558,23.8123513 L22.8122635,23.2587644 C23.0508023,23.0200076 23.0508023,22.6315719 22.8121746,22.3928595 L22.4717288,22.0522642 C22.3801593,21.9607185 22.3566611,21.7718694 22.4203974,21.6399529 C22.4802655,21.5161505 22.5337311,21.3880577 22.5794381,21.2593646 C22.6286353,21.1206678 22.7796062,21.0035124 22.9091241,21.0035124 L23.3877356,21.0035124 C23.7253803,21.0035124 24,20.7288309 24,20.3912812 L24,19.6089856 C23.9997777,19.2712136 23.7250913,18.9965765 23.3875577,18.9965765 Z M21,19.9999876 C21,21.1027847 20.1027655,22 18.9999752,22 C17.8972345,22 17,21.1027847 17,19.9999876 C17,18.8972153 17.8972345,18 18.9999752,18 C20.1027655,18 21,18.8971409 21,19.9999876 Z" id="el_Jy-gexKuRR"></path></g></g></g></g></svg>