<svg width="28" height="28" viewBox="0 0 28 28" fill="none" xmlns="http://www.w3.org/2000/svg">
<path d="M8.75625 19.7812C9.5125 19.7812 10.6 19.9125 10.6 20.9C10.6 21.8688 9.73125 22.075 8.9125 22.075C8.14375 22.075 6.98125 21.95 6.98125 20.95C6.98125 19.95 7.9625 19.7812 8.75625 19.7812ZM7.2125 12.4938C7.2125 13.4188 7.625 14 8.60625 14C9.575 14 9.93126 13.375 9.93126 12.4688C9.9375 10.3187 7.2125 10.2938 7.2125 12.4938ZM28 3V25C28 26.6562 26.6562 28 25 28H3C1.34375 28 0 26.6562 0 25V3C0 1.34375 1.34375 0 3 0H25C26.6562 0 28 1.34375 28 3ZM12.9375 8.85625C12.1687 9.15625 11.3438 9.38125 10.5063 9.38125C8.1 8 4.8375 9.4375 4.8375 12.475C4.8375 13.6 5.5625 15.1562 6.6875 15.5312V15.575C5.85 15.9438 5.61875 17.8313 6.73125 18.5125V18.5563C5.5125 18.9563 4.7125 19.7312 4.7125 21.0687C4.7125 23.3687 6.8875 24.0062 8.8 24.0062C11.1187 24.0062 12.85 23.1687 12.85 20.6125C12.85 17.4625 8.34375 18.625 8.34375 16.9188C8.34375 16.3188 8.66875 16.0812 9.225 15.9688C11.075 15.625 12.2375 14.1812 12.2375 12.3C12.2375 11.975 12.1687 11.6625 12.0562 11.3625C12.3562 11.2937 12.65 11.2188 12.9375 11.1188V8.85625ZM16.4875 8.96875H14.0125C14.0938 9.63125 14.0813 17.8813 14.0125 18.6875H16.4875C16.4187 17.8875 16.4125 9.61875 16.4875 8.96875ZM16.7687 5.6375C16.7687 4.8 16.1438 4 15.2625 4C14.3688 4 13.725 4.78125 13.725 5.6375C13.725 6.4875 14.3813 7.25625 15.2625 7.25625C16.1188 7.25625 16.7687 6.475 16.7687 5.6375ZM23.2875 8.96875H21.0125C21.0125 8.35625 20.9875 7.74375 21.0812 7.125H18.55C18.6312 7.58125 18.6187 7.975 18.6187 8.96875H17.55V11.0875C18.2937 10.9688 18.3062 11.0438 18.6187 11.0438V11.0875H18.5938V15.0062C18.5938 16.95 18.875 18.8312 21.2625 18.8312C21.9313 18.8312 22.7 18.7187 23.2938 18.3937V16.2062C22.9375 16.45 22.425 16.575 21.9875 16.575C21.1625 16.575 21.0187 15.7687 21.0187 15.1125V11.0375C22.4375 11.0375 23.2938 11.0812 23.2938 11.0812V8.96875H23.2875Z" fill="#03588C"/>
</svg>
