<svg width="20" height="20" viewBox="0 0 20 20" fill="none" xmlns="http://www.w3.org/2000/svg"><path d="M9.99938 0C4.4775 0 0 4.49462 0 10.0403C0 14.4753 2.865 18.2383 6.83938 19.566C7.33938 19.6582 7.52187 19.3483 7.52187 19.0822C7.52187 18.8438 7.51312 18.2125 7.50812 17.3749C4.72625 17.9816 4.13938 16.0289 4.13938 16.0289C3.685 14.8693 3.02938 14.5606 3.02938 14.5606C2.12125 13.9375 3.09812 13.9501 3.09812 13.9501C4.10125 14.021 4.62937 14.9848 4.62937 14.9848C5.52187 16.519 6.97 16.076 7.54 15.8187C7.63062 15.1699 7.88938 14.7275 8.175 14.4765C5.95438 14.223 3.62 13.3621 3.62 9.51507C3.62 8.41887 4.00938 7.52283 4.64937 6.82068C4.54625 6.56655 4.20312 5.54627 4.74687 4.16394C4.74687 4.16394 5.58687 3.89413 7.49687 5.193C8.295 4.97025 9.15 4.85919 10.0006 4.85479C10.85 4.85919 11.7056 4.97025 12.5044 5.193C14.4131 3.89413 15.2513 4.16394 15.2513 4.16394C15.7969 5.54627 15.4537 6.56655 15.3506 6.82068C15.9919 7.52283 16.3787 8.41887 16.3787 9.51507C16.3787 13.3715 14.0406 14.2205 11.8131 14.469C12.1719 14.779 12.4919 15.3914 12.4919 16.3282C12.4919 17.6704 12.4794 18.7528 12.4794 19.0822C12.4794 19.3508 12.6594 19.6633 13.1669 19.5648C17.1375 18.2345 20 14.474 20 10.0403C20 4.49462 15.5225 0 9.99938 0Z" fill="white"></path></svg>