<svg xmlns="http://www.w3.org/2000/svg" width="18" height="18" viewBox="0 0 18 18" class="svg-inline--fa fa-w-18 fa-fw fa-lg"><g fill=" #817A7A"><path d="M9,14.6647467 C8.42273438,14.6647467 7.84546875,14.4868571 7.35257813,14.1307264 L5.32907052e-15,8.8193522 L5.32907052e-15,16.3125102 C5.32907052e-15,17.2444967 0.755507813,18 1.6875,18 L16.3125,18 C17.2444922,18 18,17.2444967 18,16.3125102 L18,8.8193522 L10.6474219,14.1307264 C10.1545313,14.4865055 9.57726563,14.6647467 9,14.6647467 Z M17.3534766,5.72878489 C17.0423438,5.48480198 16.7473828,5.25523305 16.3125,4.92687566 L16.3125,3.37508813 C16.3125,2.44310156 15.5569922,1.6875983 14.625,1.6875983 L11.8986328,1.6875983 C11.7917578,1.61025502 11.6922656,1.53783358 11.5808203,1.45697469 C10.9898438,1.0256101 9.815625,-0.0121961439 9,0.000108469408 C8.184375,-0.0121961439 7.01050781,1.0256101 6.41917969,1.45697469 C6.30773438,1.53783358 6.20824219,1.61025502 6.10136719,1.6875983 L3.375,1.6875983 C2.44300781,1.6875983 1.6875,2.44310156 1.6875,3.37508813 L1.6875,4.92687566 C1.25261719,5.25488149 0.95765625,5.48480198 0.646523438,5.72878489 C0.238466114,6.04857268 0,6.53819523 0,7.05662845 L0,7.43104025 L3.375,9.8691115 L3.375,3.37508813 L14.625,3.37508813 L14.625,9.8691115 L18,7.43104025 L18,7.05662845 C18,6.53842844 17.7616406,6.04870483 17.3534766,5.72878489 Z"></path> <path d="M11,10.2901786 C11,10.7455357 10.8578111,11.1376488 10.5734334,11.4665179 C10.2890556,11.7953869 9.91965033,11.9985119 9.46521754,12.0758929 L9.46521754,12.8571429 C9.46521754,12.8988095 9.45235623,12.9330357 9.42663362,12.9598214 C9.40091101,12.9866071 9.36804323,13 9.32803028,13 L8.74927153,13 C8.71211664,13 8.67996338,12.9858631 8.65281174,12.9575893 C8.62566009,12.9293155 8.61208427,12.8958333 8.61208427,12.8571429 L8.61208427,12.0758929 C8.42345179,12.0491071 8.24124996,12.0029762 8.06547878,11.9375 C7.88970761,11.8720238 7.74466066,11.8058036 7.63033794,11.7388393 C7.51601523,11.671875 7.41026672,11.6004464 7.31309241,11.5245536 C7.2159181,11.4486607 7.14946802,11.3928571 7.11374217,11.3571429 C7.07801632,11.3214286 7.05300823,11.2946429 7.03871789,11.2767857 C6.99013073,11.2142857 6.98727267,11.1532738 7.03014368,11.09375 L7.47171518,10.4910714 C7.49172165,10.4613095 7.52458943,10.4434524 7.57031852,10.4375 C7.61318954,10.4315476 7.64748635,10.4449405 7.67320896,10.4776786 L7.68178317,10.4866071 C8.00474484,10.78125 8.35200009,10.9672619 8.72354892,11.0446429 C8.82929743,11.0684524 8.93504594,11.0803571 9.04079445,11.0803571 C9.27229795,11.0803571 9.47593529,11.016369 9.65170647,10.8883929 C9.82747764,10.7604167 9.91536323,10.578869 9.91536323,10.34375 C9.91536323,10.2604167 9.89392772,10.1815476 9.8510567,10.1071429 C9.80818569,10.0327381 9.76031305,9.9702381 9.70743879,9.91964286 C9.65456454,9.86904762 9.57096605,9.81324405 9.45664333,9.75223214 C9.34232062,9.69122024 9.24800438,9.64360119 9.17369461,9.609375 C9.09938485,9.57514881 8.98506213,9.52678571 8.83072646,9.46428571 C8.71926181,9.41666667 8.63137623,9.37946429 8.5670697,9.35267857 C8.50276317,9.32589286 8.41487758,9.28645833 8.30341293,9.234375 C8.19194829,9.18229167 8.10263366,9.13616071 8.03546907,9.09598214 C7.96830447,9.05580357 7.88756406,9.00297619 7.79324781,8.9375 C7.69893157,8.87202381 7.62247826,8.80877976 7.56388787,8.74776786 C7.50529747,8.68675595 7.4431345,8.61383929 7.37739893,8.52901786 C7.31166337,8.44419643 7.26093267,8.3578869 7.22520682,8.27008929 C7.18948097,8.18229167 7.15947126,8.08333333 7.13517768,7.97321429 C7.1108841,7.86309524 7.09873731,7.74702381 7.09873731,7.625 C7.09873731,7.21428571 7.23878264,6.85416667 7.5188733,6.54464286 C7.79896395,6.23511905 8.16336761,6.03571429 8.61208427,5.94642857 L8.61208427,5.14285714 C8.61208427,5.10416667 8.62566009,5.07068452 8.65281174,5.04241071 C8.67996338,5.0141369 8.71211664,5 8.74927153,5 L9.32803028,5 C9.36804323,5 9.40091101,5.01339286 9.42663362,5.04017857 C9.45235623,5.06696429 9.46521754,5.10119048 9.46521754,5.14285714 L9.46521754,5.92857143 C9.62812741,5.94642857 9.78603566,5.98065476 9.93894229,6.03125 C10.0918489,6.08184524 10.2161749,6.13169643 10.3119202,6.18080357 C10.4076654,6.22991071 10.4984091,6.28571429 10.5841511,6.34821429 C10.6698932,6.41071429 10.7256255,6.45386905 10.7513481,6.47767857 C10.7770707,6.5014881 10.7985062,6.52232143 10.8156546,6.54017857 C10.8642418,6.59375 10.8713869,6.65029762 10.8370901,6.70982143 L10.4898349,7.36160714 C10.4669703,7.40625 10.4341026,7.43005952 10.3912315,7.43303571 C10.3512186,7.44196429 10.3126347,7.43154762 10.2754798,7.40178571 C10.2669056,7.39285714 10.2461846,7.375 10.2133168,7.34821429 C10.180449,7.32142857 10.1247167,7.28199405 10.0461198,7.22991071 C9.96752297,7.17782738 9.88392448,7.13020833 9.79532438,7.08705357 C9.70672427,7.04389881 9.60026125,7.00520833 9.47593529,6.97098214 C9.35160934,6.93675595 9.22942694,6.91964286 9.10938808,6.91964286 C8.83787163,6.91964286 8.61637137,6.98363095 8.4448873,7.11160714 C8.27340322,7.23958333 8.18766118,7.4047619 8.18766118,7.60714286 C8.18766118,7.68452381 8.19980797,7.75595238 8.22410155,7.82142857 C8.24839513,7.88690476 8.29055163,7.94866071 8.35057106,8.00669643 C8.41059048,8.06473214 8.46703732,8.11383929 8.51991158,8.15401786 C8.57278583,8.19419643 8.65281174,8.24032738 8.75998928,8.29241071 C8.86716683,8.34449405 8.95362338,8.38467262 9.01935894,8.41294643 C9.08509451,8.44122024 9.18512688,8.48214286 9.31945607,8.53571429 C9.47093367,8.5952381 9.58668542,8.6421131 9.66671132,8.67633929 C9.74673723,8.71056548 9.85534381,8.76264881 9.99253106,8.83258929 C10.1297183,8.90252976 10.2376104,8.96577381 10.3162073,9.02232143 C10.3948041,9.07886905 10.4834042,9.15327381 10.5820076,9.24553571 C10.6806109,9.33779762 10.7563497,9.43229167 10.809224,9.52901786 C10.8620982,9.62574405 10.9071128,9.73958333 10.9442677,9.87053571 C10.9814226,10.0014881 11,10.141369 11,10.2901786 Z"></path></g></svg>