<svg width="19" height="19" viewBox="0 0 19 19" fill="none" xmlns="http://www.w3.org/2000/svg"><path d="M3.9309 9.5997C3.9309 8.98999 4.03217 8.40546 4.2129 7.85719L1.04938 5.44141C0.432822 6.69325 0.0854492 8.10381 0.0854492 9.5997C0.0854492 11.0943 0.432395 12.504 1.04809 13.755L4.20991 11.3345C4.03089 10.7888 3.9309 10.2064 3.9309 9.5997Z" fill="#FBBC05"></path> <path d="M9.48539 4.05484C10.8099 4.05484 12.0063 4.52418 12.9463 5.29218L15.6808 2.56151C14.0145 1.11084 11.8781 0.214844 9.48539 0.214844C5.77068 0.214844 2.5781 2.33922 1.04932 5.44322L4.21284 7.859C4.94177 5.64631 7.0196 4.05484 9.48539 4.05484Z" fill="#EA4335"></path> <path d="M9.48539 15.1479C7.0196 15.1479 4.94177 13.5564 4.21284 11.3438L1.04932 13.7591C2.5781 16.8635 5.77068 18.9879 9.48539 18.9879C11.7781 18.9879 13.9671 18.1738 15.6099 16.6485L12.607 14.327C11.7598 14.8608 10.6929 15.1479 9.48539 15.1479Z" fill="#34A853"></path> <path d="M18.4581 9.6012C18.4581 9.04653 18.3726 8.4492 18.2444 7.89453H9.48535V11.5212H14.5272C14.2751 12.7577 13.5889 13.7083 12.607 14.327L15.6099 16.6485C17.3356 15.0467 18.4581 12.6608 18.4581 9.6012Z" fill="#4285F4"></path></svg>