<svg data-v-fe3262c0="" xmlns="http://www.w3.org/2000/svg" width="16" height="16" viewBox="0 0 16 16"><path data-v-fe3262c0="" fill="var(--color-primary)" fill-rule="evenodd" d="M300,141 C300.552285,141 301,141.447715 301,142 L301,147 C301,147.552285 300.552285,148 300,148 L295,148 C294.447715,148 294,147.552285 294,147 L294,142 C294,141.447715 294.447715,141 295,141 L300,141 Z M309,141 C309.552285,141 310,141.447715 310,142 L310,147 C310,147.552285 309.552285,148 309,148 L304,148 C303.447715,148 303,147.552285 303,147 L303,142 C303,141.447715 303.447715,141 304,141 L309,141 Z M300,132 C300.552285,132 301,132.447715 301,133 L301,138 C301,138.552285 300.552285,139 300,139 L295,139 C294.447715,139 294,138.552285 294,138 L294,133 C294,132.447715 294.447715,132 295,132 L300,132 Z M309,132 C309.552285,132 310,132.447715 310,133 L310,138 C310,138.552285 309.552285,139 309,139 L304,139 C303.447715,139 303,138.552285 303,138 L303,133 C303,132.447715 303.447715,132 304,132 L309,132 Z" transform="translate(-294 -132)"></path></svg>