<svg width="24" height="32" viewBox="0 0 24 32" fill="none" xmlns="http://www.w3.org/2000/svg">
<path d="M21.8826 14.0654V9.69143C21.89 4.34469 17.4539 0 12.0075 0C6.55359 0 2.12861 4.34469 2.12861 9.69143V14.069H0V32H24V14.0654H21.8826ZM5.84157 9.69143C5.84157 6.35977 8.61137 3.65349 12.0075 3.65349C15.3961 3.65349 18.1584 6.35977 18.1584 9.69143V14.069H5.84157V9.69143ZM13.7036 27.0775H10.315L10.822 22.1623C10.192 21.7783 9.77446 21.0981 9.77446 20.3118C9.77446 19.1049 10.7735 18.1248 12.0075 18.1248C13.2377 18.1248 14.2367 19.1049 14.2367 20.3118C14.2367 21.0944 13.8192 21.7819 13.1817 22.1623L13.7036 27.0775Z" fill="#03588C"/>
</svg>
