<svg viewBox="0 0 166 32" version="1.1" xmlns="http://www.w3.org/2000/svg" xmlns:xlink="http://www.w3.org/1999/xlink">
    <defs>
        <polygon id="path-1" points="0 -4.375e-05 98.6429083 -4.375e-05 98.6429083 20.6381 0 20.6381"></polygon>
    </defs>
    <g id="Symbols" stroke="none" stroke-width="1" fill="none" fill-rule="evenodd">
        <g id="logo-/--logo---default">
            <g id="logo">
                <g id="text" transform="translate(67.000000, 9.000000)">
                    <mask id="mask-2" fill="white">
                        <use xlink:href="#path-1"></use>
                    </mask>
                    <g id="Clip-2"></g>
                    <path d="M91.4252031,7.8066625 L92.6663777,7.8066625 C94.0411376,7.8066625 94.7285175,7.2011625 94.7285175,5.9906 C94.7285175,4.7796 94.0411376,4.1736625 92.6663777,4.1736625 L91.4252031,4.1736625 L91.4252031,7.8066625 Z M91.4252031,15.69085 L87.6826572,15.69085 L87.6826572,1.1207875 L93.6403821,1.1207875 C95.2568057,1.1207875 96.4949541,1.5456 97.3539629,2.3961 C98.2134039,3.2461625 98.6431245,4.4440375 98.6431245,5.9906 C98.6431245,7.5362875 98.2134039,8.7341625 97.3539629,9.584225 C96.4949541,10.4351625 95.2568057,10.859975 93.6403821,10.859975 L91.4252031,10.859975 L91.4252031,15.69085 Z M68.9504738,1.1207875 L71.4328231,10.53185 L74.4879891,1.1207875 L77.4666354,1.1207875 L80.5222336,10.53185 L83.0041507,1.1207875 L86.9187576,1.1207875 L82.622417,15.69085 L78.8033515,15.69085 L75.9777445,7.2466625 L73.1512729,15.69085 L69.3322074,15.69085 L65.0358668,1.1207875 L68.9504738,1.1207875 Z M61.3892948,10.7632875 C61.3892948,10.4544125 61.3348231,10.1612875 61.2267445,9.8839125 C61.1186659,9.606975 60.9626004,9.365475 60.7589803,9.1594125 C60.5553603,8.95335 60.3167227,8.7892875 60.0430677,8.6667875 C59.7689803,8.544725 59.4732773,8.4830375 59.1550939,8.4830375 C58.8494476,8.4830375 58.5632555,8.541225 58.2960852,8.656725 C58.0284825,8.7731 57.7958974,8.9341 57.598762,9.1401625 C57.4011943,9.3466625 57.2425349,9.587725 57.1214869,9.8646625 C57.0004389,10.1420375 56.9399148,10.4351625 56.9399148,10.7440375 C56.9399148,11.05335 56.9974127,11.342975 57.111976,11.6137875 C57.2265393,11.8841625 57.385631,12.1191 57.5892511,12.3186 C57.7928712,12.518975 58.0315087,12.679975 58.3055961,12.8020375 C58.5788188,12.9245375 58.8684694,12.9857875 59.1741157,12.9857875 C59.479762,12.9857875 59.7663865,12.9276 60.0335568,12.8116625 C60.3007271,12.695725 60.5328799,12.5351625 60.7304476,12.3286625 C60.927583,12.1226 61.0866747,11.8841625 61.208155,11.6137875 C61.3287707,11.342975 61.3892948,11.0599125 61.3892948,10.7632875 Z M57.0354563,20.6381 L53.5795349,20.6381 L53.5795349,5.7775375 L57.0354563,5.7775375 L57.0354563,6.8791625 C57.7738493,5.938975 58.7794127,5.4686625 60.0525786,5.4686625 C60.7524956,5.4686625 61.4052904,5.60735 62.0096659,5.88385 C62.6140415,6.161225 63.1393035,6.53835 63.585452,7.01435 C64.0307358,7.491225 64.3778843,8.0516625 64.6260328,8.6956625 C64.8741812,9.3401 64.9982555,10.0291625 64.9982555,10.7632875 C64.9982555,11.49785 64.8741812,12.1807875 64.6260328,12.8116625 C64.3778843,13.4434125 64.033762,13.99685 63.5949629,14.473725 C63.1552991,14.9501625 62.6365218,15.324225 62.0381987,15.5946 C61.4398755,15.864975 60.7909716,16.0006 60.0910546,16.0006 C58.8684694,16.0006 57.8499367,15.57535 57.0354563,14.72485 L57.0354563,20.6381 Z M45.0058755,5.7775375 L45.0058755,11.3626625 C45.0058755,12.5867875 45.5912293,13.197975 46.7628013,13.197975 C47.9335087,13.197975 48.5192948,12.5867875 48.5192948,11.3626625 L48.5192948,5.7775375 L51.9756485,5.7775375 L51.9756485,12.0390375 C51.9756485,13.3786625 51.5394432,14.3836 50.6674651,15.052975 C49.7954869,15.723225 48.4937882,16.0579125 46.7628013,16.0579125 C45.0313821,16.0579125 43.7296834,15.723225 42.8577052,15.052975 C41.9857271,14.3836 41.5495218,13.3786625 41.5495218,12.0390375 L41.5495218,5.7775375 L45.0058755,5.7775375 Z M29.6154825,5.7775375 L33.0718362,5.7775375 L33.0718362,7.0336 C33.5426266,6.4539125 34.0199017,6.064975 34.5040939,5.8650375 C34.9878537,5.6651 35.5541856,5.56535 36.2035218,5.56535 C36.8909017,5.56535 37.479714,5.678225 37.9699585,5.9031 C38.4597707,6.12885 38.8769541,6.4477875 39.2206441,6.8599125 C39.5003515,7.1950375 39.6914345,7.5686625 39.7934607,7.98035 C39.8950546,8.39335 39.9460677,8.863225 39.9460677,9.3912875 L39.9460677,15.69085 L36.489714,15.69085 L36.489714,10.6862875 C36.489714,10.196725 36.4546965,9.8007875 36.3850939,9.4976 C36.3146266,9.1952875 36.1905524,8.95335 36.0124389,8.7731 C35.8598319,8.618225 35.6877707,8.50885 35.4971201,8.4445375 C35.3060371,8.380225 35.102417,8.34785 34.8858275,8.34785 C34.3000415,8.34785 33.8517314,8.525475 33.5400328,8.8794125 C33.2274694,9.2337875 33.0718362,9.7391 33.0718362,10.396225 L33.0718362,15.69085 L29.6154825,15.69085 L29.6154825,5.7775375 Z M24.5362205,15.69085 L27.9925742,15.69085 L27.9925742,5.7775375 L24.5362205,5.7775375 L24.5362205,15.69085 Z M24.3075262,1.97085 C24.3075262,1.700475 24.358107,1.4462875 24.4605655,1.2074125 C24.5621594,0.9694125 24.7017969,0.7602875 24.8803428,0.5791625 C25.0584563,0.3989125 25.2651026,0.2576 25.5011463,0.15435 C25.7363253,0.0511 25.9879323,-8.75e-05 26.2551026,-8.75e-05 C26.5227052,-8.75e-05 26.7738799,0.0511 27.0094913,0.15435 C27.2446703,0.2576 27.4517489,0.3989125 27.6302948,0.5791625 C27.807976,0.7602875 27.9480459,0.9694125 28.0500721,1.2074125 C28.1520983,1.4462875 28.202679,1.700475 28.202679,1.97085 C28.202679,2.241225 28.1520983,2.49585 28.0500721,2.7342875 C27.9480459,2.972725 27.807976,3.1822875 27.6302948,3.3621 C27.4517489,3.5427875 27.2446703,3.6845375 27.0094913,3.78735 C26.7738799,3.8906 26.5227052,3.9417875 26.2551026,3.9417875 C25.9879323,3.9417875 25.7363253,3.8906 25.5011463,3.78735 C25.2651026,3.6845375 25.0584563,3.5427875 24.8803428,3.3621 C24.7017969,3.1822875 24.5621594,2.972725 24.4605655,2.7342875 C24.358107,2.49585 24.3075262,2.241225 24.3075262,1.97085 Z M19.7059716,10.7632875 C19.7059716,10.4544125 19.6515,10.1612875 19.5434214,9.8839125 C19.4353428,9.606975 19.2792773,9.365475 19.0756572,9.1594125 C18.8716048,8.95335 18.6333996,8.7892875 18.3597445,8.6667875 C18.0856572,8.544725 17.7895218,8.4830375 17.4717707,8.4830375 C17.1661245,8.4830375 16.8795,8.541225 16.6123297,8.656725 C16.3451594,8.7731 16.1125742,8.9341 15.9154389,9.1401625 C15.7178712,9.3466625 15.5587795,9.587725 15.4377314,9.8646625 C15.3171157,10.1420375 15.2565917,10.4351625 15.2565917,10.7440375 C15.2565917,11.05335 15.3136572,11.342975 15.4282205,11.6137875 C15.5432162,11.8841625 15.7018755,12.1191 15.9059279,12.3186 C16.109548,12.518975 16.3477533,12.679975 16.6218406,12.8020375 C16.8954956,12.9245375 17.1851463,12.9857875 17.4907926,12.9857875 C17.7964389,12.9857875 18.082631,12.9276 18.3498013,12.8116625 C18.6174039,12.695725 18.8495568,12.5351625 19.0471245,12.3286625 C19.2442598,12.1226 19.4033515,11.8841625 19.5243996,11.6137875 C19.6450153,11.342975 19.7059716,11.0599125 19.7059716,10.7632875 Z M15.3521332,20.6381 L11.8957795,20.6381 L11.8957795,5.7775375 L15.3521332,5.7775375 L15.3521332,6.8791625 C16.0900939,5.938975 17.0960895,5.4686625 18.3692555,5.4686625 C19.0691725,5.4686625 19.7215349,5.60735 20.3263428,5.88385 C20.9307183,6.161225 21.4559803,6.53835 21.9016965,7.01435 C22.3469803,7.491225 22.6941288,8.0516625 22.9422773,8.6956625 C23.1908581,9.3401 23.3145,10.0291625 23.3145,10.7632875 C23.3145,11.49785 23.1908581,12.1807875 22.9422773,12.8116625 C22.6941288,13.4434125 22.3504389,13.99685 21.9112074,14.473725 C21.471976,14.9501625 20.9531987,15.324225 20.3548755,15.5946 C19.7565524,15.864975 19.1072162,16.0006 18.4072991,16.0006 C17.1851463,16.0006 16.1666135,15.57535 15.3521332,14.72485 L15.3521332,20.6381 Z M8.5544214,4.8500375 C8.14674891,4.51535 7.73950873,4.2672875 7.33226856,4.1062875 C6.92502838,3.9452875 6.53032533,3.86435 6.1485917,3.86435 C5.66483188,3.86435 5.27012882,3.980725 4.96448253,4.2126 C4.65883624,4.4440375 4.50622926,4.747225 4.50622926,5.1204125 C4.50622926,5.3785375 4.58274891,5.5911625 4.7353559,5.7582875 C4.8883952,5.92585 5.08855677,6.0706625 5.33713755,6.1931625 C5.58528603,6.3161 5.86499345,6.421975 6.17712445,6.5121 C6.48882314,6.602225 6.79792795,6.6989125 7.10314192,6.801725 C8.32529476,7.2142875 9.21932096,7.7651 9.78608515,8.453725 C10.352417,9.1436625 10.6360153,10.04185 10.6360153,11.1500375 C10.6360153,11.8972875 10.5115087,12.5736625 10.2633603,13.178725 C10.0152118,13.7846625 9.6525,14.3031 9.17522489,14.734475 C8.69751747,15.1662875 8.11216376,15.500975 7.41829913,15.7394125 C6.7244345,15.97785 5.9384869,16.09685 5.06002402,16.09685 C3.23954803,16.09685 1.55265721,15.5495375 -0.000216157205,14.4540375 L1.60367031,11.4011625 C2.16394978,11.9034125 2.71774454,12.277475 3.26505459,12.5216 C3.81236463,12.7666 4.35362227,12.8891 4.8883952,12.8891 C5.49925546,12.8891 5.95405022,12.74735 6.2536441,12.4642875 C6.55237336,12.1807875 6.70195415,11.8587875 6.70195415,11.49785 C6.70195415,11.2791 6.66434279,11.0887875 6.58782314,10.9277875 C6.51130349,10.7667875 6.38377074,10.618475 6.20565721,10.4832875 C6.02711135,10.3481 5.79539083,10.2221 5.50876638,10.1066 C5.22257424,9.990225 4.87542576,9.8616 4.46818559,9.71985 C3.98399345,9.5654125 3.51017686,9.3947875 3.04543886,9.2075375 C2.58070087,9.0211625 2.1674083,8.7731 1.80426419,8.4637875 C1.4415524,8.154475 1.14844323,7.7651 0.926233624,7.2947875 C0.703159389,6.824475 0.592054585,6.2290375 0.592054585,5.5071625 C0.592054585,4.7861625 0.709644105,4.1325375 0.945255459,3.54585 C1.1804345,2.9596 1.51158734,2.4569125 1.93784934,2.038225 C2.36454367,1.619975 2.88634716,1.294475 3.50369214,1.0626 C4.12103712,0.830725 4.81187555,0.7147875 5.57534279,0.7147875 C6.28822926,0.7147875 7.03310699,0.814975 7.80954367,1.014475 C8.58598035,1.2144125 9.33085808,1.5071 10.0437445,1.8934125 L8.5544214,4.8500375 Z" id="Fill-1" fill="#30353A" mask="url(#mask-2)"></path>
                </g>
                <g id="bug" fill="#EC5373">
                    <path d="M36.2518825,9.57435616 C36.2518825,8.82739726 36.8522182,8.21589041 37.5864883,8.21589041 L48.1957219,8.21589041 C48.929992,8.21589041 49.5298971,7.60482192 49.5298971,6.85742466 C49.5298971,6.11046575 48.929992,5.49983562 48.1957219,5.49983562 L33.0732036,5.49983562 C32.3397949,5.49983562 31.7385978,4.88876712 31.7385978,4.14136986 C31.7385978,3.39441096 32.3397949,2.78334247 33.0732036,2.78334247 L45.1359044,2.78334247 C45.8693131,2.78334247 46.4705102,2.17183562 46.4705102,1.42487671 C46.4705102,0.677479452 45.8693131,0.0664109589 45.1359044,0.0664109589 L32.4203277,0.0664109589 C30.8126854,-0.0830684932 29.1546562,0.0155616438 27.4949044,0.401753425 C19.4515248,2.27572603 14.2892401,10.141589 15.503262,18.3129863 L14.854262,18.3129863 L1.33464891,18.3129863 C1.01510146,18.3129863 0.726130657,18.4326575 0.49529854,18.6242192 C0.195561314,18.8736438 4.30656934e-05,19.248 4.30656934e-05,19.6705753 C4.30656934e-05,20.4175342 0.599948175,21.0290411 1.33464891,21.0290411 L2.83850292,21.0290411 L25.9660723,21.0290411 C26.700773,21.0290411 27.3006781,21.6401096 27.3006781,22.3875068 C27.3006781,23.1344658 26.700773,23.7455342 25.9660723,23.7455342 L15.6750942,23.7455342 C14.9408241,23.7455342 14.3404883,24.3570411 14.3404883,25.1035616 C14.3404883,25.8167671 14.8891453,26.3997808 15.577335,26.4519452 L23.4531891,26.4519452 C23.4872109,26.4519452 23.5186489,26.4593973 23.5513788,26.4620274 C24.239138,26.5141918 24.7877949,27.0972055 24.7877949,27.8099726 C24.7877949,28.5569315 24.1874591,29.1684384 23.4531891,29.1684384 L14.340919,29.1684384 L11.4163277,29.1684384 C10.6820577,29.1684384 10.0817219,29.7795068 10.0817219,30.5264658 C10.0817219,31.273863 10.6820577,31.8849315 11.4163277,31.8849315 L30.476773,31.8849315 C31.7954445,31.9292055 33.1412474,31.8033973 34.487481,31.490411 C42.5084664,29.6212603 47.6647219,21.7948493 46.4903204,13.6488767 L56.4509847,13.6488767 C57.1848241,13.6488767 57.7851599,13.0382466 57.7851599,12.2912877 C57.7851599,11.5438904 57.1848241,10.9328219 56.4509847,10.9328219 L37.5864883,10.9328219 C36.8522182,10.9328219 36.2518825,10.3213151 36.2518825,9.57435616 M5.59729124,25.104 C5.59729124,25.8509589 6.19719635,26.4624658 6.93146642,26.4624658 L11.4710212,26.4624658 C12.2044299,26.4624658 12.8047657,25.8509589 12.8047657,25.104 C12.8047657,24.3570411 12.2044299,23.7455342 11.4710212,23.7455342 L6.93146642,23.7455342 C6.19719635,23.7455342 5.59729124,24.3570411 5.59729124,25.104 M52.4906635,5.49983562 C52.0048825,5.70279452 51.6599263,6.18980822 51.6599263,6.75572603 C51.6599263,7.50224658 52.2606927,8.11331507 52.9949628,8.11331507 L57.5336562,8.11331507 C58.2674956,8.11331507 58.8674007,7.50224658 58.8674007,6.75572603 C58.8674007,6.00832877 58.2674956,5.39726027 57.5336562,5.39726027 L56.7046416,5.39726027 L52.9949628,5.39726027 C52.8162401,5.39726027 52.6465613,5.43452055 52.4906635,5.49983562 M2.96985328,29.2140274 C2.23515255,29.3845479 1.77693358,30.1297534 1.94445912,30.8771507 C2.11284599,31.6245479 2.84496277,32.0931507 3.57923285,31.9217534 C4.31393358,31.7503562 4.77301387,31.005589 4.60462701,30.2581918 C4.4366708,29.5103562 3.70498467,29.0430685 2.96985328,29.2140274 M50.8201453,2.7789589 C50.8085175,2.7820274 50.7977511,2.78071233 50.7856927,2.78334247 L50.2443569,2.78334247 C49.7357511,2.67726027 49.3089701,2.28317808 49.1858022,1.73479452 C49.0174153,0.986958904 49.476065,0.242191781 50.2107657,0.0712328767 C50.9458971,-0.100164384 51.6771526,0.368 51.8451088,1.11539726 C52.0139263,1.86323288 51.554846,2.608 50.8201453,2.7789589" id="Fill-1"></path>
                </g>
            </g>
        </g>
    </g>
</svg>