<svg width="18" height="18" viewBox="0 0 20 20" fill="none" xmlns="http://www.w3.org/2000/svg" class="svg-inline--fa fa-w-18 fa-fw fa-lg"><g clip-path="url(#clip0_2532_8842)"><path d="M14.6132 15.4296C14.1463 15.4296 13.7795 15.7966 13.7795 16.2637V16.6807C13.7795 16.9059 13.5877 17.0977 13.3626 17.0977H8.77738C8.54395 17.0977 8.36054 16.9059 8.36054 16.6807V3.33613C8.36054 3.10261 8.54395 2.91912 8.77738 2.91912H13.3626C13.5877 2.91912 13.7795 3.10261 13.7795 3.33613V4.17017C13.7795 4.62889 14.1463 5.0042 14.6132 5.0042C15.0717 5.0042 15.4469 4.62889 15.4469 4.17017V2.08508C15.4469 1.61803 15.0717 1.25105 14.6132 1.25105H8.36054V0.417017C8.3522 0.183487 8.16879 0 7.93536 0C7.90201 0 7.86866 0 7.84365 0.00834034L0.340493 1.67641C0.148745 1.71811 0.00701902 1.88492 0.00701902 2.07674L0.00701902 17.9234H0.000349543C-0.0079873 18.1152 0.133739 18.282 0.325486 18.3237L7.82865 19.9918C7.94536 20.0168 8.07875 19.9834 8.17879 19.9084C8.2705 19.825 8.32886 19.7082 8.32886 19.5831V18.7491H14.5815C15.04 18.7491 15.4152 18.3738 15.4152 17.915V16.247C15.4068 15.7799 15.04 15.4129 14.5815 15.4129L14.6132 15.4296ZM6.27633 10.4254C6.27633 11.1093 5.70942 11.6765 5.0258 11.6765C4.33384 11.6765 3.77527 11.1093 3.77527 10.4254C3.77527 9.73317 4.33384 9.17437 5.0258 9.17437C5.70942 9.17437 6.27633 9.73317 6.27633 10.4254Z" fill=" #817A7A"></path> <path d="M19.647 9.73134L15.5828 7.02073C15.1993 6.76218 14.6741 6.86226 14.424 7.24591C14.3323 7.37936 14.2823 7.53783 14.2823 7.70463V9.16419H10.8383C10.1464 9.16419 9.58778 9.72299 9.58778 10.4152C9.58778 11.0992 10.1464 11.6663 10.8383 11.6663H14.2773V13.1259C14.2773 13.5846 14.6441 13.9515 15.1109 13.9515C15.2693 13.9432 15.4277 13.9015 15.5695 13.8098L19.6337 11.0991C20.0088 10.8406 20.1172 10.3235 19.8588 9.93984C19.7921 9.8481 19.7171 9.7647 19.6253 9.70631L19.647 9.73134Z" fill=" #817A7A"></path></g> <defs><clipPath id="clip0_2532_8842"><rect width="20" height="20" fill="white"></rect></clipPath></defs></svg>