<svg width="36" height="36" viewBox="0 0 36 36" fill="none" xmlns="http://www.w3.org/2000/svg">
<path d="M17.9901 35.9995C12.5094 35.9995 7.02861 35.9995 1.54769 35.9995C1.35845 36.004 1.16976 35.9771 0.989048 35.9201C0.704163 35.8233 0.45598 35.6392 0.278803 35.3934C0.101625 35.1475 0.00420224 34.8519 0 34.5475C0 34.5033 0 34.4591 0 34.4148C0.000227367 23.4716 0.000340994 12.5277 0.000340994 1.58333C0.000340994 1.40607 0.00341051 1.22949 0.059684 1.05914C0.254765 0.469288 0.653113 0.119939 1.26223 0.0186937C1.34317 0.00538049 1.42512 -0.000632581 1.50711 0.00072517C1.54598 0.00072517 1.58486 0.00072517 1.62374 0.00072517C12.556 0.00072517 23.4885 0.00072517 34.4213 0.00072517C34.5911 -0.00399762 34.7607 0.0143648 34.9257 0.0553217C35.201 0.131318 35.4482 0.287846 35.6362 0.505343C35.8242 0.722841 35.9449 0.991662 35.9829 1.27821C35.9939 1.3659 35.9996 1.45418 36 1.54256C36 12.5162 36 23.4898 36 34.4632C36 34.8409 35.8994 35.1813 35.6566 35.4708C35.3742 35.8074 35.0113 35.9805 34.5765 35.9985C34.5134 36.0013 34.4503 35.9985 34.3872 35.9985L17.9901 35.9995Z" fill="#037EE6"/>
<path d="M17.9901 35.9995C12.5094 35.9995 7.02861 35.9995 1.54769 35.9995C1.35845 36.004 1.16976 35.9771 0.989048 35.9201C0.704163 35.8233 0.45598 35.6392 0.278803 35.3934C0.101625 35.1475 0.00420224 34.8519 0 34.5475C0 34.5033 0 34.4591 0 34.4148C0.000227367 23.4716 0.000340994 12.5277 0.000340994 1.58333C0.000340994 1.40607 0.00341051 1.22949 0.059684 1.05914C0.254765 0.469288 0.653113 0.119939 1.26223 0.0186937C1.34317 0.00538049 1.42512 -0.000632581 1.50711 0.00072517C1.54598 0.00072517 1.58486 0.00072517 1.62374 0.00072517C12.556 0.00072517 23.4885 0.00072517 34.4213 0.00072517C34.5911 -0.00399762 34.7607 0.0143648 34.9257 0.0553217C35.201 0.131318 35.4482 0.287846 35.6362 0.505343C35.8242 0.722841 35.9449 0.991662 35.9829 1.27821C35.9939 1.3659 35.9996 1.45418 36 1.54256C36 12.5162 36 23.4898 36 34.4632C36 34.8409 35.8994 35.1813 35.6566 35.4708C35.3742 35.8074 35.0113 35.9805 34.5765 35.9985C34.5134 36.0013 34.4503 35.9985 34.3872 35.9985L17.9901 35.9995Z" fill="#037EE6" fill-opacity="0.2"/>
<path d="M18.1405 15.6143C18.0921 15.6346 18.0755 15.6831 18.0502 15.7226C17.6799 16.2784 17.3104 16.8345 16.9418 17.391L10.4473 27.178C10.345 27.3318 10.3784 27.3108 10.2147 27.3118C9.09701 27.3205 7.97897 27.3284 6.86061 27.3355C5.82563 27.3431 4.79075 27.3511 3.75599 27.3596H3.60103C3.59583 27.2974 3.63741 27.266 3.66275 27.2289C4.01836 26.7043 4.37494 26.1804 4.7325 25.6572L11.3053 16.001C12.4076 14.3818 13.5099 12.7628 14.6123 11.1438C15.0683 10.4699 15.6284 9.88227 16.269 9.40561C16.6487 9.11764 17.0714 8.89922 17.5194 8.75945C17.8977 8.64262 18.2949 8.61095 18.6855 8.66648C19.0761 8.722 19.4513 8.86349 19.7872 9.08184C20.0337 9.23694 20.2644 9.41866 20.4755 9.62409C20.8284 9.9707 21.1443 10.3572 21.4176 10.7767L26.2319 18.0096L32.0793 26.7895C32.1674 26.9212 32.2553 27.0531 32.3428 27.1852C32.3636 27.2165 32.383 27.2488 32.4006 27.2764C32.3873 27.3166 32.3606 27.3073 32.3402 27.3084C32.3031 27.3108 32.2661 27.3084 32.2294 27.3084H12.2113C12.1651 27.3084 12.119 27.3084 12.0729 27.3063C12.0683 27.3059 12.064 27.3042 12.0603 27.3014C12.0566 27.2986 12.0537 27.2948 12.0519 27.2904C12.0501 27.286 12.0494 27.2811 12.0501 27.2763C12.0507 27.2716 12.0525 27.267 12.0553 27.2633C12.082 27.2234 12.1093 27.1838 12.1366 27.1446C13.2226 25.5977 14.3085 24.0507 15.3942 22.5038C15.4975 22.3566 15.4627 22.3769 15.632 22.3769H22.091C22.1281 22.3769 22.1651 22.3769 22.2018 22.3769C22.2288 22.3769 22.2622 22.3872 22.2791 22.361C22.296 22.3349 22.2694 22.3067 22.2554 22.2836C22.1755 22.1519 22.093 22.0211 22.0137 21.89C20.7526 19.8415 19.4915 17.7927 18.2302 15.7436C18.2072 15.6956 18.1769 15.6519 18.1405 15.6143Z" fill="white"/>
</svg>
