<svg width="32" height="28" viewBox="0 0 32 28" fill="none" xmlns="http://www.w3.org/2000/svg">
<path d="M0.0223682 15.6561C0.154022 12.8759 0.918342 10.2864 2.36653 7.94715C5.4933 2.90253 10.0353 0.301743 15.2283 0.0028026C15.4916 -0.0009342 15.7476 -0.0009342 16 0.0028026C16.2523 -0.0009342 16.5083 0.0028026 16.7716 0.0028026C21.9609 0.301743 26.503 2.90253 29.6334 7.94715C31.0853 10.2864 31.8459 12.8759 31.9776 15.6561C32.1933 20.1701 30.8512 24.1236 27.9731 27.5465C27.4794 28.1331 27.132 28.1481 26.5944 27.6062C26.0568 27.0644 25.5266 26.5188 24.9963 25.9733C24.4075 25.3717 24.3856 25.1064 24.9122 24.4599C26.0532 23.0586 26.9089 21.4929 27.3149 19.7179C28.4412 14.8078 27.1649 10.6152 23.4969 7.25959C21.5514 5.48089 19.2072 4.5467 16.5705 4.41218C16.3803 4.40471 16.1901 4.39723 16.0036 4.39723C15.8171 4.39723 15.627 4.40471 15.4368 4.41218C12.8001 4.54297 10.4559 5.47716 8.51036 7.25959C4.84235 10.6189 3.56604 14.8078 4.69241 19.7179C5.09834 21.4929 5.95409 23.0586 7.09508 24.4599C7.6217 25.1064 7.59975 25.3717 7.01097 25.9733C6.47704 26.5188 5.94677 27.0644 5.41284 27.6062C4.87526 28.1481 4.52418 28.1331 4.03414 27.5465C1.15239 24.1236 -0.193397 20.1701 0.0223682 15.6561ZM14.8809 15.2376C15.8683 14.4827 16.8521 13.7242 17.8395 12.9656C19.3791 11.7848 20.9187 10.6003 22.4656 9.42691C22.6192 9.31107 22.835 9.19523 23.0105 9.21018C23.4896 9.24755 23.603 9.72211 23.2665 10.1855C21.3575 12.7863 19.4486 15.387 17.5432 17.9878C17.0349 18.6791 16.2084 18.9444 15.3746 18.6679C14.6103 18.4138 14.0947 17.6702 14.0947 16.8257C14.0947 16.1605 14.3616 15.6337 14.8809 15.2376Z" fill="#03588C"/>
</svg>
