<svg width="291" height="180" viewBox="0 0 291 180" fill="none" xmlns="http://www.w3.org/2000/svg">
<g clip-path="url(#clip0_8_6)">
<mask id="mask0_8_6" style="mask-type:luminance" maskUnits="userSpaceOnUse" x="0" y="0" width="291" height="180">
<path d="M290.977 0H0.456055V180H290.977V0Z" fill="white"/>
</mask>
<g mask="url(#mask0_8_6)">
<path opacity="0.5" d="M278.459 153.102C277.955 151.021 276.299 149.452 275.079 147.69C273.614 145.518 272.757 142.993 272.599 140.377C272.44 137.762 272.986 135.151 274.179 132.818C275.352 130.588 277.19 128.28 276.524 125.844C276.079 124.205 274.598 123.083 273.144 122.203C267.62 118.876 261.245 117.237 254.801 117.486C246.904 117.809 239.032 120.963 231.287 119.401C223.744 117.873 217.353 114.091 209.461 113.643C203.566 113.309 197.735 113.684 191.828 113.039C177.232 111.456 162.529 111.104 147.874 111.99C133.221 111.105 118.518 111.456 103.924 113.039C98.0312 113.684 92.1973 113.309 86.2902 113.643C78.3749 114.089 71.9987 117.876 64.4527 119.401C56.7045 120.966 48.8361 117.809 40.9384 117.486C34.495 117.237 28.1193 118.876 22.5954 122.203C21.1296 123.083 19.6638 124.205 19.2153 125.844C18.5527 128.277 20.3879 130.585 21.5605 132.818C22.7544 135.151 23.3011 137.761 23.1439 140.376C22.9866 142.992 22.1311 145.518 20.6664 147.69C19.4469 149.449 17.7905 151.021 17.2863 153.102C16.2719 157.288 20.341 160.976 24.3221 162.639C35.1837 167.18 48.3934 164.984 58.3286 171.307C62.7817 174.145 66.6778 178.701 71.9547 178.871C75.5224 178.985 78.7677 177.003 81.884 175.259C86.5473 172.649 91.4222 170.435 96.4569 168.643C100.854 167.077 105.513 165.822 110.153 166.341C117.239 167.124 147.868 181.923 161.676 173.178C171.133 167.183 178.509 167.133 185.613 166.338C190.253 165.819 194.909 167.074 199.309 168.64C204.344 170.432 209.219 172.646 213.882 175.256C216.995 177.001 220.244 178.982 223.811 178.868C229.088 178.698 232.984 174.142 237.437 171.304C247.367 164.978 260.574 167.177 271.444 162.636C275.404 160.968 279.476 157.291 278.459 153.102Z" fill="url(#paint0_linear_8_6)"/>
<path opacity="0.18" d="M277.023 153.017C276.525 150.965 274.886 149.405 273.681 147.664C272.235 145.514 271.39 143.016 271.235 140.43C271.081 137.843 271.622 135.262 272.802 132.956C273.974 130.748 275.78 128.467 275.123 126.061C274.681 124.439 273.218 123.328 271.781 122.461C266.319 119.17 260.013 117.548 253.641 117.793C245.831 118.11 238.048 121.232 230.384 119.684C222.92 118.178 216.606 114.431 208.787 113.988C202.956 113.66 197.178 114.029 191.35 113.402C176.915 111.836 162.374 111.489 147.88 112.364C133.387 111.489 118.846 111.836 104.411 113.402C98.5827 114.041 92.8045 113.669 86.9736 113.988C79.1579 114.428 72.8403 118.175 65.3765 119.684C57.7162 121.232 49.9299 118.11 42.1201 117.793C35.7477 117.548 29.4422 119.17 23.9794 122.461C22.5429 123.34 21.0801 124.439 20.6374 126.061C19.9807 128.467 21.81 130.751 22.9592 132.956C24.1393 135.262 24.6801 137.843 24.5255 140.43C24.3708 143.016 23.5263 145.514 22.0798 147.664C20.8719 149.405 19.2361 150.956 18.7377 153.017C17.7087 157.156 21.7338 160.803 25.6651 162.433C36.4094 166.921 49.4726 164.749 59.2905 171.005C63.6879 173.81 67.5488 178.319 72.7758 178.486C76.2938 178.601 79.5185 176.639 82.5967 174.913C87.2093 172.33 92.0311 170.14 97.0113 168.366C101.365 166.816 105.967 165.576 110.558 166.089C117.594 166.874 147.877 181.5 161.521 172.852C170.876 166.924 178.17 166.874 185.194 166.089C189.785 165.576 194.39 166.816 198.741 168.366C203.721 170.14 208.543 172.33 213.155 174.913C216.236 176.637 219.447 178.598 222.976 178.486C228.194 178.319 232.049 173.813 236.462 171.005C246.282 164.749 259.346 166.921 270.087 162.433C274.004 160.803 278.029 157.156 277.023 153.017Z" fill="#0481CD"/>
<path opacity="0.7" d="M274.393 29.3395C273.047 28.8616 271.62 28.4248 270.215 28.6681C267.87 29.0786 266.217 31.3066 265.525 33.5903C264.833 35.874 264.848 38.3102 264.402 40.6554C263.956 43.0007 262.889 45.431 260.784 46.5567C258.679 47.6825 256.193 47.2369 253.857 46.9672C250.797 46.6104 247.707 46.5778 244.64 46.8704C242.063 47.1196 239.041 47.9903 238.284 50.4646C237.666 52.4874 238.894 54.5453 239.715 56.4949C241.248 60.1388 241.371 64.4512 239.615 67.9955C237.83 71.6014 234.309 74.1812 232.826 77.919C232.451 78.8688 232.213 79.9212 232.468 80.9092C232.688 81.6178 233.05 82.2741 233.532 82.8382C234.705 84.3392 236.089 85.6613 237.15 87.2356C239.363 90.519 239.964 94.6115 240.222 98.5633C240.475 102.448 240.454 106.346 240.158 110.228C243.042 109.278 246.232 110.125 249.205 109.513C255.534 108.208 259.486 100.718 265.932 100.261C268.981 100.047 272.262 101.48 274.982 100.085C276.307 99.4046 277.248 98.1353 277.879 96.7838C279.01 94.3341 279.257 91.5682 278.579 88.9564C278.101 87.1418 277.172 85.3681 277.354 83.5007C277.509 81.903 278.465 80.4929 279.567 79.3261C282.701 75.9988 287.251 73.9642 289.502 69.9861C291.613 66.2571 291.079 61.2118 288.239 58.0076C287.494 57.1662 286.609 56.445 285.958 55.5304C284.876 54.0089 284.53 52.0857 284.401 50.2212C284.093 45.7505 284.853 41.0219 283.407 36.6802C282.088 32.7284 278.087 30.6382 274.393 29.3395Z" fill="#046AA9"/>
<path opacity="0.6" d="M274.317 29.4562C274.317 29.4562 261.485 100.726 244.819 109.225" stroke="#EF98A9" stroke-miterlimit="10"/>
<path opacity="0.6" d="M238.613 49.1839C238.613 49.1839 252.357 51.0719 266.088 65.1875" stroke="#EF98A9" stroke-miterlimit="10"/>
<path opacity="0.6" d="M263.672 73.4629C263.672 73.4629 274.252 63.1173 290.775 64.8762" stroke="#EF98A9" stroke-miterlimit="10"/>
<path opacity="0.6" d="M232.577 77.9601C232.577 77.9601 251.878 79.5988 259.026 87.0129" stroke="#EF98A9" stroke-miterlimit="10"/>
<path opacity="0.6" d="M256.123 93.9139C256.123 93.9139 266.938 92.0201 276.908 98.3993" stroke="#EF98A9" stroke-miterlimit="10"/>
<path d="M42.2471 0C40.0379 0 38.2471 1.79086 38.2471 4V7.32606V141.173C38.2471 143.382 40.0379 145.173 42.2471 145.173H247.354C249.563 145.173 251.354 143.382 251.354 141.173V7.32606V4C251.354 1.79086 249.563 0 247.354 0H42.2471Z" fill="#EEEEEE"/>
<path d="M249.187 10.4495C249.187 8.24033 247.397 6.44946 245.187 6.44946H45.4985C43.2894 6.44946 41.4985 8.24032 41.4985 10.4495V138.408C41.4985 140.617 43.2894 142.408 45.4985 142.408H245.187C247.397 142.408 249.187 140.617 249.187 138.408V10.4495Z" fill="white"/>
<path d="M202.649 75.8777L199.014 77.6105L169.655 91.6332L167.064 92.8622C166.886 92.9454 166.694 92.992 166.497 92.9991C166.301 93.0061 166.105 92.9735 165.922 92.9031C165.739 92.8328 165.572 92.7261 165.432 92.59C165.291 92.4536 165.181 92.2906 165.106 92.1104C165.037 91.9418 165.002 91.7618 165.003 91.58V83.2966C165.003 82.9182 164.852 82.555 164.582 82.2864C164.313 82.0178 163.948 81.8655 163.566 81.8627H91.9033C91.5214 81.8627 91.1546 81.7131 90.8836 81.4464C90.6125 81.1798 90.4588 80.8176 90.4561 80.4392V68.7433C90.4561 68.363 90.6086 67.9983 90.8799 67.7294C91.1514 67.4606 91.5195 67.3094 91.9033 67.3094H163.566C163.946 67.3069 164.31 67.1559 164.579 66.8896C164.848 66.6231 165 66.2627 165.003 65.8858V57.4183C165.002 57.2365 165.037 57.0563 165.106 56.8878C165.181 56.7076 165.292 56.5443 165.433 56.4081C165.574 56.2718 165.741 56.1656 165.925 56.0955C166.108 56.0256 166.304 55.9934 166.501 56.0011C166.698 56.0087 166.891 56.0559 167.068 56.14L169.655 57.3875L199.014 71.5578L202.655 73.3089C202.896 73.4284 203.099 73.612 203.241 73.8392C203.382 74.0663 203.457 74.3282 203.456 74.5952C203.455 74.8622 203.38 75.1237 203.237 75.3503C203.094 75.5769 202.891 75.7594 202.649 75.8777Z" fill="#03588C"/>
<path d="M249.456 3H41.4561V10H249.456V3Z" fill="#EEEEEE"/>
<path d="M46 7C47.1045 7 48 6.10457 48 5C48 3.89543 47.1045 3 46 3C44.8953 3 44 3.89543 44 5C44 6.10457 44.8953 7 46 7Z" fill="#FF5252"/>
<path d="M52 7C53.1045 7 54 6.10457 54 5C54 3.89543 53.1045 3 52 3C50.8953 3 50 3.89543 50 5C50 6.10457 50.8953 7 52 7Z" fill="#FFC045"/>
<path d="M58 7C59.1045 7 60 6.10457 60 5C60 3.89543 59.1045 3 58 3C56.8953 3 56 3.89543 56 5C56 6.10457 56.8953 7 58 7Z" fill="#68C799"/>
<path d="M4.92334 173.471L8.65904 174.515L14.4657 160.6L8.95217 159.059L4.92334 173.471Z" fill="#FFB8B8"/>
<path d="M14.8941 180L3.15283 176.717L4.42114 172.18L12.08 174.321C13.1627 174.624 14.0808 175.345 14.6324 176.324C15.1839 177.304 15.3237 178.463 15.021 179.546L14.8941 180Z" fill="#4D4E5A"/>
<path d="M49.486 176.398H53.3654L54 161.433H49.4849L49.486 176.398Z" fill="#FFB8B8"/>
<path d="M60.8467 179.998L48.6551 179.999L48.6548 175.288L56.6073 175.287C57.164 175.287 57.7152 175.397 58.2297 175.61C58.7439 175.823 59.2112 176.135 59.6049 176.529C59.9986 176.923 60.3108 177.39 60.5239 177.904C60.7371 178.419 60.8467 178.97 60.8467 179.527V179.998Z" fill="#4D4E5A"/>
<path d="M20.6605 114.268L11.7319 136.145L48.1903 144.337L48.6553 132.097L32.1003 114.461L20.6605 114.268Z" fill="#B3B3B3"/>
<path d="M42.3985 113.059L25.8959 106.303L24.4266 96.613C23.9939 93.7805 24.6696 90.8905 26.3131 88.5437C27.9566 86.197 30.4414 84.5744 33.2504 84.0133L35.4333 83.5747C37.2266 83.2156 39.0802 83.2997 40.8333 83.8198C42.5867 84.3398 44.1865 85.2803 45.494 86.5591C46.7745 87.783 47.7322 89.3051 48.2813 90.9893C48.8307 92.6735 48.9541 94.4676 48.6413 96.2113C48.3948 97.7053 47.7888 99.1171 46.8759 100.325C41.6917 107.106 42.3572 112.742 42.3645 112.799L42.3985 113.059Z" fill="#046AA9"/>
<path d="M49.1186 138.328L40.848 125.173L43.453 101.243L39.8545 83.3457L40.0459 83.3507C42.1388 83.4023 44.1317 84.2572 45.6119 85.7379C47.092 87.219 47.9457 89.2125 47.9964 91.3059L51.497 108.844L49.1186 138.328Z" fill="#454651"/>
<path d="M49.3072 173.567C48.9587 173.567 48.6209 173.446 48.3512 173.225C48.0818 173.004 47.8968 172.696 47.8279 172.355L44.2048 154.334C43.5428 151.033 42.2966 147.876 40.5247 145.013L30.3011 128.472C30.2501 128.39 30.1774 128.323 30.0912 128.279C30.005 128.235 29.9083 128.216 29.8118 128.224C29.7153 128.232 29.6229 128.266 29.5446 128.323C29.4663 128.38 29.4053 128.457 29.3681 128.546L12.5592 168.932C12.4241 169.255 12.1813 169.521 11.8722 169.685C11.563 169.849 11.2066 169.901 10.8636 169.831L6.3733 168.916C5.98862 168.839 5.64917 168.615 5.42739 168.291C5.20565 167.968 5.11911 167.57 5.18627 167.184L8.84933 145.592C9.59656 141.191 10.8698 136.896 12.6416 132.799L25.0472 104.123L43.3546 110.137L44.5627 122.959L53.0219 143.445C53.6064 144.86 53.9559 146.361 54.0561 147.888L55.619 171.564C55.6433 171.96 55.5122 172.349 55.2537 172.648C54.9951 172.948 54.6298 173.135 54.2355 173.169L49.4315 173.562C49.3899 173.565 49.3483 173.567 49.3072 173.567Z" fill="#4D4E5A"/>
<path d="M15.91 144.195L10.106 138.685L21.0748 96.381C21.7707 93.7212 23.0754 91.2595 24.886 89.191C26.6965 87.1222 28.9633 85.5027 31.5071 84.4609L31.7226 84.3732L31.1363 110.12L15.91 144.195Z" fill="#4D4E5A"/>
<path d="M27.2114 148.924C27.1097 148.963 27.0038 148.991 26.8959 149.006L13.645 150.856C13.3245 150.902 12.9979 150.837 12.7189 150.673C12.4399 150.508 12.2252 150.254 12.1101 149.951L0.704243 120.267C0.630385 120.075 0.598817 119.869 0.61169 119.664C0.624563 119.458 0.681574 119.258 0.778838 119.076C0.876105 118.895 1.01134 118.736 1.17532 118.612C1.33931 118.488 1.52819 118.4 1.7291 118.355L14.1902 115.574C14.2864 115.552 14.3794 115.518 14.4668 115.473L26.5869 109.135C26.6805 109.086 26.7794 109.047 26.8815 109.02L40.2199 105.464C40.5614 105.372 40.9249 105.41 41.2401 105.571C41.5549 105.732 41.7994 106.003 41.9258 106.334L51.8709 132.216C51.9583 132.442 51.9867 132.686 51.9539 132.925C51.921 133.165 51.8275 133.392 51.6827 133.586L48.2433 138.205C48.0815 138.423 47.8614 138.59 47.6084 138.687L40.0917 141.576C40.0378 141.597 39.9856 141.622 39.9355 141.65L27.4101 148.83C27.3464 148.866 27.28 148.898 27.2114 148.924Z" fill="white"/>
<path d="M33.376 109.422L31.6821 109.873L27.1936 111.071L27.1856 111.073L21.0405 114.286L18.7599 115.479L18.7589 115.48L15.3338 117.271L15.2398 117.292L11.6817 118.085L9.96204 118.47L2.94824 120.035L13.959 148.691L21.1867 147.682L22.9589 147.434L26.7361 146.906L26.78 146.901L38.9176 139.943L46.3025 137.105L49.6742 132.576L40.0896 107.632L33.376 109.422Z" fill="#E6E6E6"/>
<path d="M41.6691 111.742L5.15479 125.777L5.78009 127.404L42.2944 113.369L41.6691 111.742Z" fill="white"/>
<path d="M43.7535 117.166L7.23926 131.201L7.86457 132.829L44.3788 118.794L43.7535 117.166Z" fill="white"/>
<path d="M47.963 128.124L11.4487 142.159L12.074 143.786L48.5883 129.751L47.963 128.124Z" fill="white"/>
<path d="M33.3765 109.421L44.3081 137.871L42.6811 138.496L31.6826 109.873L33.3765 109.421Z" fill="white"/>
<path d="M21.0401 114.286L18.7955 120.533L18.0171 122.7L16.2015 127.756L15.8124 128.836L15.4231 129.923L14.9104 131.349L11.2306 141.591L10.2739 139.101L13.2744 130.749L13.9531 128.858L14.0527 128.582L14.8555 126.346L15.8683 123.526L16.6467 121.359L18.7585 115.479L21.0401 114.286Z" fill="white"/>
<path opacity="0.1" d="M39.1818 139.842L38.9171 139.944L26.7795 146.901L26.7355 146.907L15.2393 117.292L15.3333 117.271L18.7585 115.48L21.0401 114.287L27.1853 111.073L27.1933 111.071L39.1818 139.842Z" fill="black"/>
<path d="M27.2659 149.067C27.1534 149.11 27.0362 149.141 26.9168 149.157L13.6659 151.007C13.3112 151.058 12.9498 150.987 12.6411 150.805C12.3324 150.623 12.0948 150.341 11.9674 150.006L0.561545 120.322C0.479826 120.11 0.444908 119.882 0.45916 119.654C0.473413 119.427 0.536501 119.205 0.644136 119.004C0.751771 118.804 0.901426 118.629 1.08289 118.491C1.26435 118.353 1.47336 118.256 1.69568 118.207L14.1567 115.425C14.2399 115.407 14.3202 115.377 14.3959 115.338L26.516 109C26.6196 108.946 26.7289 108.903 26.8419 108.873L40.1804 105.317C40.5582 105.215 40.9605 105.257 41.3093 105.435C41.6579 105.613 41.9282 105.914 42.068 106.28L52.0132 132.162C52.1099 132.412 52.1416 132.682 52.1049 132.947C52.0686 133.212 51.9654 133.463 51.805 133.677L48.3657 138.297C48.1865 138.537 47.9429 138.722 47.663 138.83L40.1463 141.719C40.0997 141.737 40.0546 141.758 40.0112 141.783L27.4859 148.963C27.4153 149.003 27.3418 149.038 27.2659 149.067ZM1.69122 118.844C1.45014 118.937 1.25577 119.122 1.15083 119.358C1.04589 119.594 1.03897 119.862 1.13161 120.103L12.5374 149.787C12.6157 149.993 12.7618 150.166 12.9515 150.278C13.1413 150.39 13.3635 150.434 13.5815 150.402L26.8324 148.553C26.9556 148.535 27.0743 148.495 27.1823 148.433L39.7075 141.253C39.7781 141.213 39.8514 141.178 39.9271 141.149L47.4437 138.259C47.6158 138.194 47.7656 138.08 47.8758 137.932L51.3151 133.313C51.4136 133.181 51.4773 133.026 51.4995 132.863C51.5221 132.701 51.5025 132.534 51.4433 132.381L41.4978 106.499C41.4119 106.274 41.246 106.089 41.0317 105.98C40.8174 105.87 40.57 105.844 40.3378 105.907L26.9993 109.463C26.93 109.482 26.8629 109.508 26.7991 109.541L14.6788 115.879C14.5559 115.943 14.4251 115.991 14.2899 116.021L1.82876 118.802C1.78195 118.813 1.73597 118.827 1.69122 118.844Z" fill="#E6E6E6"/>
<path d="M11.6822 118.085L22.9592 147.434L21.1872 147.682L9.9624 118.47L11.6822 118.085Z" fill="white"/>
<path d="M14.9253 129.931C15.3745 129.931 15.7387 129.567 15.7387 129.118C15.7387 128.668 15.3745 128.304 14.9253 128.304C14.476 128.304 14.1118 128.668 14.1118 129.118C14.1118 129.567 14.476 129.931 14.9253 129.931Z" fill="#3F3D56"/>
<path d="M43.7678 130.799C44.2172 130.799 44.5813 130.435 44.5813 129.985C44.5813 129.536 44.2172 129.172 43.7678 129.172C43.3187 129.172 42.9546 129.536 42.9546 129.985C42.9546 130.435 43.3187 130.799 43.7678 130.799Z" fill="#EE5372"/>
<path d="M44.0968 115.291C45.02 117.693 43.9089 125.656 43.5181 128.212C43.5058 128.293 43.4724 128.369 43.4208 128.433C43.3695 128.497 43.3021 128.546 43.2256 128.575C43.1491 128.605 43.0661 128.613 42.9852 128.601C42.9043 128.587 42.8283 128.553 42.7647 128.501C40.7633 126.865 34.6067 121.696 33.6832 119.293C33.4206 118.609 33.2951 117.88 33.3138 117.148C33.3329 116.416 33.4956 115.694 33.7935 115.025C34.091 114.355 34.5176 113.751 35.0488 113.247C35.58 112.742 36.2053 112.347 36.8889 112.084C37.5729 111.822 38.3017 111.696 39.034 111.715C39.7663 111.734 40.4875 111.897 41.1567 112.194C41.826 112.492 42.4302 112.919 42.9348 113.45C43.439 113.981 43.8339 114.607 44.0968 115.291Z" fill="#046AA9"/>
<path d="M38.8904 120.314C40.5591 120.314 41.9118 118.961 41.9118 117.292C41.9118 115.623 40.5591 114.27 38.8904 114.27C37.2218 114.27 35.8691 115.623 35.8691 117.292C35.8691 118.961 37.2218 120.314 38.8904 120.314Z" fill="white"/>
<path d="M35.0096 110.771C35.1319 110.322 35.3512 109.905 35.6519 109.55C35.9524 109.195 36.3274 108.911 36.7498 108.716C37.1726 108.522 37.6325 108.423 38.0978 108.425C38.563 108.428 39.0218 108.532 39.4422 108.732L44.8357 103.855L48.5982 106.411L40.8845 113.19C40.5031 113.874 39.884 114.395 39.1446 114.653C38.4053 114.911 37.5968 114.888 36.8727 114.59C36.1486 114.292 35.559 113.739 35.2154 113.035C34.8721 112.331 34.7988 111.525 35.0096 110.771Z" fill="#FFB8B8"/>
<path d="M43.6999 112.362L39.4717 106.623L49.1108 100.453L42.2022 90.5936C41.6375 89.788 41.3901 88.8024 41.5071 87.8259C41.6241 86.8491 42.0972 85.9497 42.8357 85.3003C43.5744 84.6507 44.5266 84.2966 45.5102 84.3057C46.4937 84.3147 47.4392 84.6862 48.1659 85.3493L56.8162 93.2429C57.6403 93.9949 58.2793 94.9268 58.6842 95.9661C59.0891 97.0056 59.2485 98.1246 59.15 99.236C59.0518 100.347 58.6983 101.421 58.1169 102.373C57.5359 103.325 56.7426 104.13 55.7995 104.725L43.6999 112.362Z" fill="#4D4E5A"/>
<path d="M10.5744 127.42C10.9567 127.155 11.276 126.809 11.5102 126.407C11.7443 126.005 11.8875 125.557 11.9296 125.093C11.9718 124.63 11.9118 124.163 11.754 123.726C11.5962 123.288 11.3443 122.89 11.0162 122.561L13.8111 115.847L10.1464 113.153L6.33259 122.69C5.81522 123.277 5.53153 124.035 5.53519 124.818C5.53889 125.601 5.82973 126.356 6.35258 126.939C6.87546 127.522 7.59402 127.893 8.37216 127.982C9.15026 128.071 9.93385 127.871 10.5744 127.42Z" fill="#FFB8B8"/>
<path d="M12.4633 120.604L5.85352 119.064L10.7791 104.859C11.6279 102.407 12.8802 100.115 14.4842 98.0768L22.5199 87.8567C23.2548 86.9218 24.3302 86.3165 25.5106 86.1731C26.6909 86.0298 27.8799 86.3601 28.8172 87.0919C29.7545 87.8236 30.3637 88.8968 30.5111 90.0768C30.6586 91.2571 30.3326 92.4473 29.6042 93.3875L20.6874 104.897L12.4633 120.604Z" fill="#4D4E5A"/>
<path d="M40.4415 83.1894C44.48 80.9814 45.9643 75.9167 43.7565 71.8773C41.5487 67.8381 36.485 66.3536 32.4464 68.5616C28.4078 70.7697 26.9235 75.8343 29.1312 79.8735C31.3389 83.9129 36.4026 85.3975 40.4415 83.1894Z" fill="#FFB8B8"/>
<path d="M34.5011 84.1815C32.4423 82.3991 31.8161 79.0741 33.0775 76.6227C34.3393 74.1716 37.3559 72.8518 39.9351 73.6228C42.3645 74.3492 45.1264 71.9269 44.8303 69.3292C44.5345 66.7318 41.3039 65.0397 39.1043 66.3302C37.4386 65.6615 35.6151 65.4885 33.8532 65.8315C32.0914 66.1748 30.4661 67.0197 29.173 68.2647C26.5887 70.7967 25.6084 74.9361 26.7685 78.4168C27.9286 81.8975 31.167 84.5327 34.5011 84.1815Z" fill="#4D4E5A"/>
</g>
</g>
<defs>
<linearGradient id="paint0_linear_8_6" x1="147.868" y1="178.874" x2="147.868" y2="111.523" gradientUnits="userSpaceOnUse">
<stop stop-color="#808080" stop-opacity="0.25"/>
<stop offset="0.54" stop-color="#808080" stop-opacity="0.12"/>
<stop offset="1" stop-color="#808080" stop-opacity="0.1"/>
</linearGradient>
<clipPath id="clip0_8_6">
<rect width="291" height="180" fill="white"/>
</clipPath>
</defs>
</svg>
