<svg width="359" height="364" viewBox="0 0 359 364" fill="none" xmlns="http://www.w3.org/2000/svg">
<mask id="path-1-outside-1_12_134" maskUnits="userSpaceOnUse" x="4.76837e-07" y="0.237204" width="359" height="363" fill="black">
<rect fill="white" x="4.76837e-07" y="0.237204" width="359" height="363"/>
<path fill-rule="evenodd" clip-rule="evenodd" d="M30.5613 96.0799L20.6082 50.4492C19.7801 47.1315 16.4624 44.6419 13.1394 45.47C9.8217 46.2981 7.33211 49.6159 8.16025 52.9388L21.4362 112.673C21.4362 114.335 23.0977 115.991 23.9258 116.819C25.5873 117.647 27.2436 117.647 28.905 117.647L87.8117 100.226C90.3013 99.398 91.9576 96.9084 91.9576 94.4188V92.7573C91.1294 89.4396 87.8117 87.7781 84.4888 88.6114L41.3488 101.054C70.3848 49.6168 124.313 18.0901 184.042 18.0901C256.219 18.0901 320.935 66.2101 340.842 135.069C341.67 138.387 344.988 140.048 348.311 139.215C350.8 138.387 352.457 135.897 352.457 133.407V131.746C330.883 57.0792 261.197 5.64182 183.217 5.64182C120.159 5.64702 61.2581 40.4912 30.5634 96.0792L30.5613 96.0799ZM8.15996 232.133C29.7333 306.8 99.42 358.237 177.4 358.237C241.28 358.237 300.187 323.393 330.88 267.811L340.838 313.436C341.666 316.754 344.984 319.243 348.307 318.415C351.625 317.587 353.286 315.097 353.286 312.608V310.946L340.01 251.212C340.01 249.55 338.349 247.894 336.693 247.066C335.031 246.238 333.375 246.238 331.713 246.238L273.635 263.659C270.317 264.487 268.656 267.805 269.489 271.128C270.317 274.445 273.635 276.107 276.958 275.274L320.098 262.831C291.062 314.268 237.134 345.795 177.404 345.795C105.227 345.795 40.511 297.675 20.6044 228.816C19.7763 225.499 16.4585 223.837 13.1356 224.67C9.82304 225.499 7.33344 228.816 8.16157 232.134L8.15996 232.133Z"/>
</mask>
<path fill-rule="evenodd" clip-rule="evenodd" d="M30.5613 96.0799L20.6082 50.4492C19.7801 47.1315 16.4624 44.6419 13.1394 45.47C9.8217 46.2981 7.33211 49.6159 8.16025 52.9388L21.4362 112.673C21.4362 114.335 23.0977 115.991 23.9258 116.819C25.5873 117.647 27.2436 117.647 28.905 117.647L87.8117 100.226C90.3013 99.398 91.9576 96.9084 91.9576 94.4188V92.7573C91.1294 89.4396 87.8117 87.7781 84.4888 88.6114L41.3488 101.054C70.3848 49.6168 124.313 18.0901 184.042 18.0901C256.219 18.0901 320.935 66.2101 340.842 135.069C341.67 138.387 344.988 140.048 348.311 139.215C350.8 138.387 352.457 135.897 352.457 133.407V131.746C330.883 57.0792 261.197 5.64182 183.217 5.64182C120.159 5.64702 61.2581 40.4912 30.5634 96.0792L30.5613 96.0799ZM8.15996 232.133C29.7333 306.8 99.42 358.237 177.4 358.237C241.28 358.237 300.187 323.393 330.88 267.811L340.838 313.436C341.666 316.754 344.984 319.243 348.307 318.415C351.625 317.587 353.286 315.097 353.286 312.608V310.946L340.01 251.212C340.01 249.55 338.349 247.894 336.693 247.066C335.031 246.238 333.375 246.238 331.713 246.238L273.635 263.659C270.317 264.487 268.656 267.805 269.489 271.128C270.317 274.445 273.635 276.107 276.958 275.274L320.098 262.831C291.062 314.268 237.134 345.795 177.404 345.795C105.227 345.795 40.511 297.675 20.6044 228.816C19.7763 225.499 16.4585 223.837 13.1356 224.67C9.82304 225.499 7.33344 228.816 8.16157 232.134L8.15996 232.133Z" fill="#817A7A"/>
<path fill-rule="evenodd" clip-rule="evenodd" d="M30.5613 96.0799L20.6082 50.4492C19.7801 47.1315 16.4624 44.6419 13.1394 45.47C9.8217 46.2981 7.33211 49.6159 8.16025 52.9388L21.4362 112.673C21.4362 114.335 23.0977 115.991 23.9258 116.819C25.5873 117.647 27.2436 117.647 28.905 117.647L87.8117 100.226C90.3013 99.398 91.9576 96.9084 91.9576 94.4188V92.7573C91.1294 89.4396 87.8117 87.7781 84.4888 88.6114L41.3488 101.054C70.3848 49.6168 124.313 18.0901 184.042 18.0901C256.219 18.0901 320.935 66.2101 340.842 135.069C341.67 138.387 344.988 140.048 348.311 139.215C350.8 138.387 352.457 135.897 352.457 133.407V131.746C330.883 57.0792 261.197 5.64182 183.217 5.64182C120.159 5.64702 61.2581 40.4912 30.5634 96.0792L30.5613 96.0799ZM8.15996 232.133C29.7333 306.8 99.42 358.237 177.4 358.237C241.28 358.237 300.187 323.393 330.88 267.811L340.838 313.436C341.666 316.754 344.984 319.243 348.307 318.415C351.625 317.587 353.286 315.097 353.286 312.608V310.946L340.01 251.212C340.01 249.55 338.349 247.894 336.693 247.066C335.031 246.238 333.375 246.238 331.713 246.238L273.635 263.659C270.317 264.487 268.656 267.805 269.489 271.128C270.317 274.445 273.635 276.107 276.958 275.274L320.098 262.831C291.062 314.268 237.134 345.795 177.404 345.795C105.227 345.795 40.511 297.675 20.6044 228.816C19.7763 225.499 16.4585 223.837 13.1356 224.67C9.82304 225.499 7.33344 228.816 8.16157 232.134L8.15996 232.133Z" stroke="#817A7A" stroke-width="10" mask="url(#path-1-outside-1_12_134)"/>
</svg>
