<svg width="747" height="499" viewBox="0 0 747 499" fill="none" xmlns="http://www.w3.org/2000/svg">
<path d="M639.72 200.867C639.845 197.997 639.939 195.111 639.939 192.2C639.939 86.2987 554.017 0.440002 448.019 0.440002C371.259 0.440002 305.059 45.4813 274.365 110.533C257.319 98.3771 236.256 91.1733 213.448 91.1733C156.708 91.1733 110.719 135.637 110.719 190.48C110.719 198.626 111.755 206.527 113.667 214.095C48.9533 227.876 0.333282 286.412 0.333282 356.548C0.333282 436.923 64.172 498.215 142.92 498.215H610.547C685.907 498.215 747 433.86 747 349.708C747 276.739 701.057 215.775 639.719 200.855L639.72 200.867ZM373.667 404.76V405.062C346.64 405.062 321.927 395.198 302.896 378.895C299.662 376.125 299.646 371.088 302.641 368.052L316.781 353.749C319.573 350.916 323.958 350.926 327.041 353.447C339.76 363.822 355.973 370.067 373.672 370.067L373.667 369.895C419.735 369.895 455.948 327.739 445.855 279.906C439.787 251.166 415.991 228.37 387.063 223.291C345.88 216.057 309.516 242.999 301.484 280.452H327.787C329.755 280.452 330.781 282.655 329.469 283.937L282.578 329.437C281.667 330.322 280.177 330.322 279.255 329.437L232.401 283.921C231.078 282.634 232.109 280.447 234.078 280.447H265.974C273.536 227.692 318.818 187.113 373.667 187.113C434.339 187.113 483.427 236.733 482.542 297.613C481.693 356.197 431.869 404.651 373.667 404.76Z" fill="#817A7A"/>
</svg>
