<svg xmlns="http://www.w3.org/2000/svg" width="18" height="18" viewBox="0 0 18 18" class="svg-inline--fa fa-w-18 fa-fw fa-lg"><path fill="#817A7A" d="M9,0 C4.02943725,0 0,4.02943725 0,9 C0,13.9705627 4.02943725,18 9,18 C13.9705627,18 18,13.9705627 18,9 C17.9946264,4.03166479 13.9683352,0.00537363571 9,0 Z M16.071,6.4995 C16.0914629,6.55686044 16.0827922,6.62058602 16.0477477,6.67039397 C16.0127032,6.72020191 15.955651,6.74988664 15.89475,6.75 L13.00275,6.75 C12.9373098,6.74968375 12.876651,6.71566946 12.84225,6.66 C12.4677923,6.04850447 11.9537455,5.53445774 11.34225,5.16 C11.2852643,5.12586913 11.250275,5.06442445 11.25,4.998 L11.25,2.106 C11.2502133,2.04509761 11.2798769,1.98806121 11.329616,1.95291623 C11.379355,1.91777124 11.4430235,1.90886047 11.5005,1.929 C13.6331687,2.68907344 15.3112765,4.36745662 16.071,6.50025 L16.071,6.4995 Z M9,12 C7.34314575,12 6,10.6568542 6,9 C6,7.34314575 7.34314575,6 9,6 C10.6568542,6 12,7.34314575 12,9 C12,9.79564947 11.6839295,10.5587112 11.1213203,11.1213203 C10.5587112,11.6839295 9.79564947,12 9,12 Z M6.4995,1.929 C6.55697648,1.90886047 6.62064496,1.91777124 6.67038404,1.95291623 C6.72012313,1.98806121 6.74978668,2.04509761 6.75,2.106 L6.75,4.998 C6.75,5.06351619 6.71588526,5.12430629 6.66,5.1585 C6.04850447,5.53295774 5.53445774,6.04700447 5.16,6.6585 C5.12554613,6.71542658 5.06379084,6.75014614 4.99725,6.75 L2.10525,6.75 C2.04441995,6.75156088 1.98658699,6.72362225 1.95,6.675 C1.91455224,6.625311 1.90585572,6.56134954 1.92675,6.504 C2.68601065,4.36929569 4.36516945,2.68931068 6.4995,1.929 L6.4995,1.929 Z M1.929,11.5005 C1.90816461,11.4431323 1.9166772,11.3792032 1.95179823,11.3292866 C1.98691926,11.2793699 2.04421634,11.2497652 2.10525,11.2499986 L4.99725,11.2499986 C5.06276619,11.2499986 5.12355629,11.2841147 5.15775,11.34 C5.53220774,11.9514955 6.04625447,12.4655423 6.65775,12.84 C6.71352687,12.8742979 6.74757771,12.9350219 6.74775,13.0005 L6.74775,15.8925 C6.74763664,15.953401 6.71795191,16.0104532 6.66814397,16.0454977 C6.61833602,16.0805422 6.55461044,16.0892129 6.49725,16.06875 C4.36608163,15.3087537 2.68899631,13.6316684 1.929,11.5005 L1.929,11.5005 Z M11.5005,16.07175 C11.4431396,16.0922129 11.379414,16.0835422 11.329606,16.0484977 C11.2797981,16.0134532 11.2501134,15.956401 11.25,15.8955 L11.25,13.0035 C11.25,12.9379838 11.2841147,12.8771937 11.34,12.843 C11.9514955,12.4685423 12.4655423,11.9544955 12.84,11.343 C12.8741937,11.2871147 12.9349838,11.253 13.0005,11.253 L15.8925,11.253 C15.9523515,11.2539289 16.0081305,11.2834918 16.0425,11.3325 C16.0779413,11.3819077 16.0866461,11.4456487 16.06575,11.50275 C15.3065867,13.6335609 13.6306868,15.3108374 11.5005,16.07175 L11.5005,16.07175 Z"></path></svg>