<svg data-v-fe3262c0="" xmlns="http://www.w3.org/2000/svg" width="16" height="14" viewBox="0 0 16 14"><path data-v-fe3262c0="" fill="var(--color-primary)" fill-rule="evenodd" d="M27,21 C27.5522847,21 28,21.4477153 28,22 C28,22.5522847 27.5522847,23 27,23 L13,23 C12.4477153,23 12,22.5522847 12,22 C12,21.4477153 12.4477153,21 13,21 L27,21 Z M27,15 C27.5522847,15 28,15.4477153 28,16 C28,16.5522847 27.5522847,17 27,17 L13,17 C12.4477153,17 12,16.5522847 12,16 C12,15.4477153 12.4477153,15 13,15 L27,15 Z M27,9 C27.5522847,9 28,9.44771525 28,10 C28,10.5522847 27.5522847,11 27,11 L13,11 C12.4477153,11 12,10.5522847 12,10 C12,9.44771525 12.4477153,9 13,9 L27,9 Z" transform="translate(-12 -9)"></path></svg>