<svg xmlns="http://www.w3.org/2000/svg" width="18" height="18" viewBox="0 0 18 18" class="svg-inline--fa fa-w-18 fa-fw fa-lg"><g fill=" #817A7A"><path d="M1.96275 13.2435C1.2255 13.98.60525 16.8435.4245 17.7435.411943884 17.80498.431103097 17.8686563.4755 17.913.519985677 17.9571591.583532818 17.9762795.645 17.964 1.545 17.78325 4.407 17.163 5.145 16.42575 5.72990232 15.8608324 5.96447834 15.0242747 5.7585686 14.2376085 5.55265886 13.4509423 4.9383077 12.8365911 4.15164148 12.6306814 3.36497526 12.4247717 2.52841756 12.6593477 1.9635 13.24425L1.96275 13.2435zM3.969 15.2145C3.7492929 15.4340663 3.39320313 15.4339903 3.17358986 15.2143301 2.95397659 14.9946699 2.95397659 14.6385801 3.17358986 14.4189199 3.39320313 14.1992597 3.7492929 14.1991837 3.969 14.41875 4.07456719 14.5242496 4.13387991 14.6673783 4.13387991 14.816625 4.13387991 14.9658717 4.07456719 15.1090004 3.969 15.2145zM16.92 1.46625C16.2395135.788450943 15.2029422.61925789 14.34225 1.0455 14.320535 1.00685533 14.2954368.970211892 14.26725.936L14.00325.6705C13.1130561-.17873961 11.7126939-.17873961 10.8225.6705L6.864 4.62825C6.57094392 4.9213061 6.57094393 5.39644389 6.86400002 5.68949998 7.15705611 5.98255607 7.6321939 5.98255608 7.92525 5.6895L11.883 1.731C12.1795121 1.4478559 12.6462379 1.4478559 12.94275 1.731L13.20825 1.9965 11.61675 3.58725C11.4703568 3.73368744 11.4703568 3.97106256 11.61675 4.1175L14.26875 6.7695C14.4151874 6.91589323 14.6525626 6.91589323 14.799 6.7695L16.92 4.65C17.3424983 4.22797142 17.579895 3.65529581 17.579895 3.058125 17.579895 2.46095419 17.3424983 1.88827858 16.92 1.46625z"></path> <path d="M10.82025,4.914 C10.6738126,4.76760677 10.4364374,4.76760677 10.29,4.914 L5.076,10.1295 C4.63682032,10.5688123 4.63682032,11.2809377 5.076,11.72025 L6.66675,13.311 C7.10606233,13.7501797 7.81818767,13.7501797 8.2575,13.311 L13.47225,8.0955 C13.6181441,7.94914884 13.6181441,7.71235116 13.47225,7.566 L10.82025,4.914 Z"></path></g></svg>