<svg width="203" height="218" viewBox="0 0 203 218" fill="none" xmlns="http://www.w3.org/2000/svg">
<path d="M69.7812 74.9375C71.4637 74.9375 73.0773 75.6552 74.267 76.9328C75.4566 78.2104 76.125 79.9432 76.125 81.75V163.5C76.125 165.307 75.4566 167.04 74.267 168.317C73.0773 169.595 71.4637 170.312 69.7812 170.312C68.0988 170.312 66.4852 169.595 65.2955 168.317C64.1059 167.04 63.4375 165.307 63.4375 163.5V81.75C63.4375 79.9432 64.1059 78.2104 65.2955 76.9328C66.4852 75.6552 68.0988 74.9375 69.7812 74.9375ZM101.5 74.9375C103.182 74.9375 104.796 75.6552 105.986 76.9328C107.175 78.2104 107.844 79.9432 107.844 81.75V163.5C107.844 165.307 107.175 167.04 105.986 168.317C104.796 169.595 103.182 170.312 101.5 170.312C99.8175 170.312 98.204 169.595 97.0143 168.317C95.8246 167.04 95.1562 165.307 95.1562 163.5V81.75C95.1562 79.9432 95.8246 78.2104 97.0143 76.9328C98.204 75.6552 99.8175 74.9375 101.5 74.9375ZM139.562 81.75C139.562 79.9432 138.894 78.2104 137.704 76.9328C136.515 75.6552 134.901 74.9375 133.219 74.9375C131.536 74.9375 129.923 75.6552 128.733 76.9328C127.543 78.2104 126.875 79.9432 126.875 81.75V163.5C126.875 165.307 127.543 167.04 128.733 168.317C129.923 169.595 131.536 170.312 133.219 170.312C134.901 170.312 136.515 169.595 137.704 168.317C138.894 167.04 139.562 165.307 139.562 163.5V81.75Z" fill="#817A7A"/>
<path d="M183.969 40.875C183.969 44.4886 182.632 47.9541 180.253 50.5093C177.873 53.0645 174.646 54.5 171.281 54.5H164.938V177.125C164.938 184.352 162.264 191.283 157.505 196.394C152.747 201.504 146.292 204.375 139.562 204.375H63.4375C56.7076 204.375 50.2534 201.504 45.4947 196.394C40.7359 191.283 38.0625 184.352 38.0625 177.125V54.5H31.7188C28.3538 54.5 25.1267 53.0645 22.7473 50.5093C20.368 47.9541 19.0313 44.4886 19.0312 40.875V27.25C19.0312 23.6364 20.368 20.1709 22.7473 17.6157C25.1267 15.0605 28.3538 13.625 31.7188 13.625H76.125C76.125 10.0114 77.4617 6.54585 79.8411 3.99067C82.2205 1.43549 85.4476 0 88.8125 0L114.188 0C117.552 0 120.78 1.43549 123.159 3.99067C125.538 6.54585 126.875 10.0114 126.875 13.625H171.281C174.646 13.625 177.873 15.0605 180.253 17.6157C182.632 20.1709 183.969 23.6364 183.969 27.25V40.875ZM52.2471 54.5L50.75 55.3039V177.125C50.75 180.739 52.0867 184.204 54.4661 186.759C56.8455 189.315 60.0726 190.75 63.4375 190.75H139.562C142.927 190.75 146.155 189.315 148.534 186.759C150.913 184.204 152.25 180.739 152.25 177.125V55.3039L150.753 54.5H52.2471ZM31.7188 40.875H171.281V27.25H31.7188V40.875Z" fill="#817A7A"/>
</svg>
